<mxfile host="Electron" agent="Mozilla/5.0 (Macintosh; Intel Mac OS X 10_15_7) AppleWebKit/537.36 (KHTML, like Gecko) draw.io/26.0.16 Chrome/132.0.6834.196 Electron/34.2.0 Safari/537.36" version="26.0.16">
  <diagram id="bj6iihaSFaeX84THu8ks" name="Page-1">
    <mxGraphModel dx="1329" dy="1351" grid="1" gridSize="10" guides="1" tooltips="1" connect="1" arrows="1" fold="1" page="1" pageScale="1" pageWidth="827" pageHeight="1169" math="0" shadow="0">
      <root>
        <mxCell id="0" />
        <mxCell id="1" parent="0" />
        <mxCell id="opdz8pNMJDnXJPpdUdvm-18" value="" style="group" parent="1" vertex="1" connectable="0">
          <mxGeometry x="30" y="40" width="1260" height="550" as="geometry" />
        </mxCell>
        <mxCell id="opdz8pNMJDnXJPpdUdvm-17" value="" style="rounded=1;whiteSpace=wrap;html=1;sketch=0;fontFamily=Montserrat;fontSource=https%3A%2F%2Ffonts.googleapis.com%2Fcss%3Ffamily%3DMontserrat;fontSize=20;align=center;strokeWidth=4;glass=0;arcSize=7;strokeColor=none;fillColor=#EBEBE9;" parent="opdz8pNMJDnXJPpdUdvm-18" vertex="1">
          <mxGeometry width="1260" height="550" as="geometry" />
        </mxCell>
        <mxCell id="opdz8pNMJDnXJPpdUdvm-10" value="&lt;font face=&quot;Roboto&quot;&gt;N O D E&lt;/font&gt;" style="rounded=1;whiteSpace=wrap;html=1;sketch=0;fontFamily=Montserrat;fontSource=https%3A%2F%2Ffonts.googleapis.com%2Fcss%3Ffamily%3DMontserrat;fontSize=20;align=left;dashed=1;strokeWidth=4;glass=0;arcSize=6;strokeColor=#ADADAC;fillColor=#FFFFFF;perimeterSpacing=0;verticalAlign=top;spacingTop=7;spacingLeft=19;" parent="opdz8pNMJDnXJPpdUdvm-18" vertex="1">
          <mxGeometry x="850" y="40" width="360" height="250" as="geometry" />
        </mxCell>
        <mxCell id="PLJ0rYsEf3zSfFruj5PY-50" value="" style="endArrow=block;html=1;strokeWidth=3;endFill=0;fontSize=20;fontColor=#E42313;targetPerimeterSpacing=10;sourcePerimeterSpacing=10;strokeColor=#7C7C7B;dashed=1;" parent="opdz8pNMJDnXJPpdUdvm-18" edge="1">
          <mxGeometry width="50" height="50" relative="1" as="geometry">
            <mxPoint x="270" y="410" as="sourcePoint" />
            <mxPoint x="269.5" y="300" as="targetPoint" />
            <Array as="points" />
          </mxGeometry>
        </mxCell>
        <mxCell id="2WHZslxdkwuj3YdjpunS-12" value="" style="group" parent="opdz8pNMJDnXJPpdUdvm-18" vertex="1" connectable="0">
          <mxGeometry x="130" y="430" width="280" height="80" as="geometry" />
        </mxCell>
        <mxCell id="2WHZslxdkwuj3YdjpunS-13" value="" style="rounded=1;whiteSpace=wrap;html=1;strokeWidth=2;strokeColor=#7C7C7B;gradientDirection=south;arcSize=50;imageHeight=24;perimeterSpacing=10;" parent="2WHZslxdkwuj3YdjpunS-12" vertex="1">
          <mxGeometry width="280" height="80" as="geometry" />
        </mxCell>
        <mxCell id="2WHZslxdkwuj3YdjpunS-15" value="&lt;font face=&quot;Roboto&quot; style=&quot;font-size: 24px&quot;&gt;Block Storage&lt;/font&gt;" style="text;strokeColor=none;fillColor=none;align=center;verticalAlign=middle;rounded=0;sketch=0;fontFamily=Montserrat;fontSource=https%3A%2F%2Ffonts.googleapis.com%2Fcss%3Ffamily%3DMontserrat;fontStyle=1;fontSize=24;spacing=0;html=1;" parent="2WHZslxdkwuj3YdjpunS-12" vertex="1">
          <mxGeometry x="111" y="14" width="110" height="21" as="geometry" />
        </mxCell>
        <mxCell id="2WHZslxdkwuj3YdjpunS-16" value="&lt;font face=&quot;Roboto&quot; color=&quot;#da291c&quot;&gt;&lt;span style=&quot;font-size: 18px;&quot;&gt;Volume 1&lt;/span&gt;&lt;/font&gt;" style="text;strokeColor=none;fillColor=none;align=center;verticalAlign=middle;rounded=0;sketch=0;fontFamily=Abel;fontSource=https%3A%2F%2Ffonts.googleapis.com%2Fcss%3Ffamily%3DAbel;fontStyle=1;fontSize=16;spacing=0;html=1;" parent="2WHZslxdkwuj3YdjpunS-12" vertex="1">
          <mxGeometry x="80" y="43" width="180" height="21" as="geometry" />
        </mxCell>
        <mxCell id="2WHZslxdkwuj3YdjpunS-17" value="" style="endArrow=none;html=1;fontSize=20;fontColor=#E42313;strokeColor=#E42313;align=center;rounded=0;" parent="2WHZslxdkwuj3YdjpunS-12" edge="1">
          <mxGeometry width="50" height="50" as="geometry">
            <mxPoint x="80" y="39.75" as="sourcePoint" />
            <mxPoint x="256" y="39.75" as="targetPoint" />
          </mxGeometry>
        </mxCell>
        <mxCell id="i4mU1MkxXMAoSAj4qFrZ-1" value="" style="shape=image;verticalLabelPosition=bottom;labelBackgroundColor=default;verticalAlign=top;aspect=fixed;imageAspect=0;editableCssRules=.*;image=data:image/svg+xml,PHN2ZyB4bWxucz0iaHR0cDovL3d3dy53My5vcmcvMjAwMC9zdmciIHZpZXdCb3g9IjAuMDYzMDAwMDAxMDEzMjc4OTYgLTAuMDAyMDAwMDAwMDk0OTk0OTAyNiA2Mi4zNjIwMDMzMjY0MTYwMTYgNjIuMzYxOTk5NTExNzE4NzUiIHdpZHRoPSI2Mi4zNjIwMDMzMjY0MTYwMTYiIGhlaWdodD0iNjIuMzYxOTk5NTExNzE4NzUiPjxwYXRoIHN0eWxlPSJmaWxsOiNkYTI5MWMiIGQ9Ik0zMS4zNzggNjIuMzZDMTMuNTQ1IDYyLjM2LjA2MyA0Ny41OS4wNjMgMzEuMzE1LjA2MyAxMi42MzIgMTUuNjItLjAwMiAzMS4xNDMtLjAwMmMxOC42MDIgMCAzMS4yODIgMTUuMzQgMzEuMjgyIDMwLjk0NyAwIDE5LjA1LTE1LjY1OCAzMS40MTUtMzEuMDQ3IDMxLjQxNSIvPjxwYXRoIHN0eWxlPSJmaWxsOiNmZmYiIGQ9Im00NC45NTcgMTkuNzM4LTExLjkzLTQuNjc3YTQuODMgNC44MyAwIDAgMC0zLjU2OS0uMDAxbC0xMS45MzMgNC42NzgtLjAyOS4wMTJhMy4yOSAzLjI5IDAgMCAwLTIuMDA1IDMuMDk4djE1LjIyN2EzLjMgMy4zIDAgMCAwIDIuMDQgMy4xMzFsMTEuOTMyIDQuNjgxYTQuODggNC44OCAwIDAgMCAzLjU2NiAwbDExLjk2MS00LjY5MmEzLjI4NSAzLjI4NSAwIDAgMCAyLjAwNi0zLjA5OFYyMi44NzFhMy4zMSAzLjMxIDAgMCAwLTIuMDM5LTMuMTMzTTMwLjE5MSAxNi45MmEyLjg0IDIuODQgMCAwIDEgMi4xMDIuMDAybDExLjM3NSA0LjQ1OS0xMi40MjUgNC44MTMtMTIuNDI2LTQuODE0ek0xOC4yODcgMzkuMzU2YTEuMzEgMS4zMSAwIDAgMS0uNzk2LTEuMjU5VjIzLjQyNWwxMi41NiA0Ljg2NXYxNS42OHptMjUuOTQ0LS4wMS0xMS43OTUgNC42MjZWMjguMjlsMTIuNTYtNC44NjZ2MTQuNjk3YTEuMyAxLjMgMCAwIDEtLjc2NCAxLjIyNCIvPjwvc3ZnPg==;" vertex="1" parent="2WHZslxdkwuj3YdjpunS-12">
          <mxGeometry x="10" y="9" width="62" height="62" as="geometry" />
        </mxCell>
        <mxCell id="2WHZslxdkwuj3YdjpunS-30" value="" style="group" parent="opdz8pNMJDnXJPpdUdvm-18" vertex="1" connectable="0">
          <mxGeometry x="430" y="430" width="280" height="80" as="geometry" />
        </mxCell>
        <mxCell id="2WHZslxdkwuj3YdjpunS-31" value="" style="rounded=1;whiteSpace=wrap;html=1;strokeWidth=2;strokeColor=#7C7C7B;gradientDirection=south;arcSize=50;imageHeight=24;perimeterSpacing=10;" parent="2WHZslxdkwuj3YdjpunS-30" vertex="1">
          <mxGeometry width="280" height="80" as="geometry" />
        </mxCell>
        <mxCell id="2WHZslxdkwuj3YdjpunS-33" value="&lt;font face=&quot;Roboto&quot; style=&quot;font-size: 24px&quot;&gt;Block Storage&lt;/font&gt;" style="text;strokeColor=none;fillColor=none;align=center;verticalAlign=middle;rounded=0;sketch=0;fontFamily=Montserrat;fontSource=https%3A%2F%2Ffonts.googleapis.com%2Fcss%3Ffamily%3DMontserrat;fontStyle=1;fontSize=24;spacing=0;html=1;" parent="2WHZslxdkwuj3YdjpunS-30" vertex="1">
          <mxGeometry x="111" y="14" width="110" height="21" as="geometry" />
        </mxCell>
        <mxCell id="2WHZslxdkwuj3YdjpunS-34" value="&lt;font face=&quot;Roboto&quot; color=&quot;#da291c&quot;&gt;&lt;span style=&quot;font-size: 18px;&quot;&gt;Volume 2&lt;/span&gt;&lt;/font&gt;" style="text;strokeColor=none;fillColor=none;align=center;verticalAlign=middle;rounded=0;sketch=0;fontFamily=Abel;fontSource=https%3A%2F%2Ffonts.googleapis.com%2Fcss%3Ffamily%3DAbel;fontStyle=1;fontSize=16;spacing=0;html=1;" parent="2WHZslxdkwuj3YdjpunS-30" vertex="1">
          <mxGeometry x="80" y="43" width="180" height="21" as="geometry" />
        </mxCell>
        <mxCell id="2WHZslxdkwuj3YdjpunS-35" value="" style="endArrow=none;html=1;fontSize=20;fontColor=#E42313;strokeColor=#E42313;align=center;rounded=0;" parent="2WHZslxdkwuj3YdjpunS-30" edge="1">
          <mxGeometry width="50" height="50" as="geometry">
            <mxPoint x="80" y="39.75" as="sourcePoint" />
            <mxPoint x="256" y="39.75" as="targetPoint" />
          </mxGeometry>
        </mxCell>
        <mxCell id="i4mU1MkxXMAoSAj4qFrZ-2" value="" style="shape=image;verticalLabelPosition=bottom;labelBackgroundColor=default;verticalAlign=top;aspect=fixed;imageAspect=0;editableCssRules=.*;image=data:image/svg+xml,PHN2ZyB4bWxucz0iaHR0cDovL3d3dy53My5vcmcvMjAwMC9zdmciIHZpZXdCb3g9IjAuMDYzMDAwMDAxMDEzMjc4OTYgLTAuMDAyMDAwMDAwMDk0OTk0OTAyNiA2Mi4zNjIwMDMzMjY0MTYwMTYgNjIuMzYxOTk5NTExNzE4NzUiIHdpZHRoPSI2Mi4zNjIwMDMzMjY0MTYwMTYiIGhlaWdodD0iNjIuMzYxOTk5NTExNzE4NzUiPjxwYXRoIHN0eWxlPSJmaWxsOiNkYTI5MWMiIGQ9Ik0zMS4zNzggNjIuMzZDMTMuNTQ1IDYyLjM2LjA2MyA0Ny41OS4wNjMgMzEuMzE1LjA2MyAxMi42MzIgMTUuNjItLjAwMiAzMS4xNDMtLjAwMmMxOC42MDIgMCAzMS4yODIgMTUuMzQgMzEuMjgyIDMwLjk0NyAwIDE5LjA1LTE1LjY1OCAzMS40MTUtMzEuMDQ3IDMxLjQxNSIvPjxwYXRoIHN0eWxlPSJmaWxsOiNmZmYiIGQ9Im00NC45NTcgMTkuNzM4LTExLjkzLTQuNjc3YTQuODMgNC44MyAwIDAgMC0zLjU2OS0uMDAxbC0xMS45MzMgNC42NzgtLjAyOS4wMTJhMy4yOSAzLjI5IDAgMCAwLTIuMDA1IDMuMDk4djE1LjIyN2EzLjMgMy4zIDAgMCAwIDIuMDQgMy4xMzFsMTEuOTMyIDQuNjgxYTQuODggNC44OCAwIDAgMCAzLjU2NiAwbDExLjk2MS00LjY5MmEzLjI4NSAzLjI4NSAwIDAgMCAyLjAwNi0zLjA5OFYyMi44NzFhMy4zMSAzLjMxIDAgMCAwLTIuMDM5LTMuMTMzTTMwLjE5MSAxNi45MmEyLjg0IDIuODQgMCAwIDEgMi4xMDIuMDAybDExLjM3NSA0LjQ1OS0xMi40MjUgNC44MTMtMTIuNDI2LTQuODE0ek0xOC4yODcgMzkuMzU2YTEuMzEgMS4zMSAwIDAgMS0uNzk2LTEuMjU5VjIzLjQyNWwxMi41NiA0Ljg2NXYxNS42OHptMjUuOTQ0LS4wMS0xMS43OTUgNC42MjZWMjguMjlsMTIuNTYtNC44NjZ2MTQuNjk3YTEuMyAxLjMgMCAwIDEtLjc2NCAxLjIyNCIvPjwvc3ZnPg==;" vertex="1" parent="2WHZslxdkwuj3YdjpunS-30">
          <mxGeometry x="10" y="9" width="62" height="62" as="geometry" />
        </mxCell>
        <mxCell id="2WHZslxdkwuj3YdjpunS-36" value="" style="group" parent="opdz8pNMJDnXJPpdUdvm-18" vertex="1" connectable="0">
          <mxGeometry x="940" y="420" width="280" height="80" as="geometry" />
        </mxCell>
        <mxCell id="2WHZslxdkwuj3YdjpunS-37" value="" style="rounded=1;whiteSpace=wrap;html=1;strokeWidth=2;strokeColor=#7C7C7B;gradientDirection=south;arcSize=50;imageHeight=24;perimeterSpacing=10;" parent="2WHZslxdkwuj3YdjpunS-36" vertex="1">
          <mxGeometry width="280" height="80" as="geometry" />
        </mxCell>
        <mxCell id="2WHZslxdkwuj3YdjpunS-39" value="&lt;font face=&quot;Roboto&quot; style=&quot;font-size: 24px&quot;&gt;Block Storage&lt;/font&gt;" style="text;strokeColor=none;fillColor=none;align=center;verticalAlign=middle;rounded=0;sketch=0;fontFamily=Montserrat;fontSource=https%3A%2F%2Ffonts.googleapis.com%2Fcss%3Ffamily%3DMontserrat;fontStyle=1;fontSize=24;spacing=0;html=1;" parent="2WHZslxdkwuj3YdjpunS-36" vertex="1">
          <mxGeometry x="111" y="14" width="110" height="21" as="geometry" />
        </mxCell>
        <mxCell id="2WHZslxdkwuj3YdjpunS-40" value="&lt;font face=&quot;Roboto&quot; color=&quot;#da291c&quot;&gt;&lt;span style=&quot;font-size: 18px;&quot;&gt;Volume 3&lt;/span&gt;&lt;/font&gt;" style="text;strokeColor=none;fillColor=none;align=center;verticalAlign=middle;rounded=0;sketch=0;fontFamily=Abel;fontSource=https%3A%2F%2Ffonts.googleapis.com%2Fcss%3Ffamily%3DAbel;fontStyle=1;fontSize=16;spacing=0;html=1;" parent="2WHZslxdkwuj3YdjpunS-36" vertex="1">
          <mxGeometry x="80" y="43" width="180" height="21" as="geometry" />
        </mxCell>
        <mxCell id="2WHZslxdkwuj3YdjpunS-41" value="" style="endArrow=none;html=1;fontSize=20;fontColor=#E42313;strokeColor=#E42313;align=center;rounded=0;" parent="2WHZslxdkwuj3YdjpunS-36" edge="1">
          <mxGeometry width="50" height="50" as="geometry">
            <mxPoint x="80" y="39.75" as="sourcePoint" />
            <mxPoint x="256" y="39.75" as="targetPoint" />
          </mxGeometry>
        </mxCell>
        <mxCell id="i4mU1MkxXMAoSAj4qFrZ-3" value="" style="shape=image;verticalLabelPosition=bottom;labelBackgroundColor=default;verticalAlign=top;aspect=fixed;imageAspect=0;editableCssRules=.*;image=data:image/svg+xml,PHN2ZyB4bWxucz0iaHR0cDovL3d3dy53My5vcmcvMjAwMC9zdmciIHZpZXdCb3g9IjAuMDYzMDAwMDAxMDEzMjc4OTYgLTAuMDAyMDAwMDAwMDk0OTk0OTAyNiA2Mi4zNjIwMDMzMjY0MTYwMTYgNjIuMzYxOTk5NTExNzE4NzUiIHdpZHRoPSI2Mi4zNjIwMDMzMjY0MTYwMTYiIGhlaWdodD0iNjIuMzYxOTk5NTExNzE4NzUiPjxwYXRoIHN0eWxlPSJmaWxsOiNkYTI5MWMiIGQ9Ik0zMS4zNzggNjIuMzZDMTMuNTQ1IDYyLjM2LjA2MyA0Ny41OS4wNjMgMzEuMzE1LjA2MyAxMi42MzIgMTUuNjItLjAwMiAzMS4xNDMtLjAwMmMxOC42MDIgMCAzMS4yODIgMTUuMzQgMzEuMjgyIDMwLjk0NyAwIDE5LjA1LTE1LjY1OCAzMS40MTUtMzEuMDQ3IDMxLjQxNSIvPjxwYXRoIHN0eWxlPSJmaWxsOiNmZmYiIGQ9Im00NC45NTcgMTkuNzM4LTExLjkzLTQuNjc3YTQuODMgNC44MyAwIDAgMC0zLjU2OS0uMDAxbC0xMS45MzMgNC42NzgtLjAyOS4wMTJhMy4yOSAzLjI5IDAgMCAwLTIuMDA1IDMuMDk4djE1LjIyN2EzLjMgMy4zIDAgMCAwIDIuMDQgMy4xMzFsMTEuOTMyIDQuNjgxYTQuODggNC44OCAwIDAgMCAzLjU2NiAwbDExLjk2MS00LjY5MmEzLjI4NSAzLjI4NSAwIDAgMCAyLjAwNi0zLjA5OFYyMi44NzFhMy4zMSAzLjMxIDAgMCAwLTIuMDM5LTMuMTMzTTMwLjE5MSAxNi45MmEyLjg0IDIuODQgMCAwIDEgMi4xMDIuMDAybDExLjM3NSA0LjQ1OS0xMi40MjUgNC44MTMtMTIuNDI2LTQuODE0ek0xOC4yODcgMzkuMzU2YTEuMzEgMS4zMSAwIDAgMS0uNzk2LTEuMjU5VjIzLjQyNWwxMi41NiA0Ljg2NXYxNS42OHptMjUuOTQ0LS4wMS0xMS43OTUgNC42MjZWMjguMjlsMTIuNTYtNC44NjZ2MTQuNjk3YTEuMyAxLjMgMCAwIDEtLjc2NCAxLjIyNCIvPjwvc3ZnPg==;" vertex="1" parent="2WHZslxdkwuj3YdjpunS-36">
          <mxGeometry x="10" y="9" width="62" height="62" as="geometry" />
        </mxCell>
        <mxCell id="opdz8pNMJDnXJPpdUdvm-2" value="&lt;font face=&quot;Roboto&quot;&gt;N O D E&lt;/font&gt;" style="rounded=1;whiteSpace=wrap;html=1;sketch=0;fontFamily=Montserrat;fontSource=https%3A%2F%2Ffonts.googleapis.com%2Fcss%3Ffamily%3DMontserrat;fontSize=20;align=left;dashed=1;strokeWidth=4;glass=0;arcSize=6;strokeColor=#ADADAC;fillColor=#FFFFFF;perimeterSpacing=0;verticalAlign=top;spacingTop=7;spacingLeft=19;" parent="opdz8pNMJDnXJPpdUdvm-18" vertex="1">
          <mxGeometry x="41.81999999999999" y="40" width="658.18" height="250" as="geometry" />
        </mxCell>
        <mxCell id="opdz8pNMJDnXJPpdUdvm-3" value="" style="group" parent="opdz8pNMJDnXJPpdUdvm-18" vertex="1" connectable="0">
          <mxGeometry x="160" y="120" width="219.99999999999997" height="150" as="geometry" />
        </mxCell>
        <mxCell id="L7jvv8ErK8NvXPGebQBz-9" value="&lt;font face=&quot;Roboto&quot;&gt;P O D 1&lt;/font&gt;" style="rounded=1;whiteSpace=wrap;html=1;sketch=0;fontFamily=Montserrat;fontSource=https%3A%2F%2Ffonts.googleapis.com%2Fcss%3Ffamily%3DMontserrat;fontSize=20;align=left;dashed=1;strokeWidth=4;glass=0;arcSize=15;strokeColor=#ADADAC;fillColor=#D6D6D6;perimeterSpacing=0;verticalAlign=top;spacingTop=7;spacingLeft=19;" parent="opdz8pNMJDnXJPpdUdvm-3" vertex="1">
          <mxGeometry width="220" height="150" as="geometry" />
        </mxCell>
        <mxCell id="L7jvv8ErK8NvXPGebQBz-2" value="" style="rounded=1;whiteSpace=wrap;html=1;strokeWidth=2;strokeColor=#7C7C7B;gradientDirection=south;arcSize=50;imageHeight=24;perimeterSpacing=10;" parent="opdz8pNMJDnXJPpdUdvm-3" vertex="1">
          <mxGeometry x="19.090000000000003" y="70" width="181.818181818182" height="62.608695652173914" as="geometry" />
        </mxCell>
        <mxCell id="L7jvv8ErK8NvXPGebQBz-4" value="&lt;font face=&quot;Roboto&quot; style=&quot;font-size: 18px;&quot; color=&quot;#ff3333&quot;&gt;volume 1&lt;/font&gt;" style="text;strokeColor=none;fillColor=none;align=center;verticalAlign=middle;rounded=0;sketch=0;fontFamily=Montserrat;fontSource=https%3A%2F%2Ffonts.googleapis.com%2Fcss%3Ffamily%3DMontserrat;fontStyle=1;fontSize=24;spacing=0;html=1;" parent="opdz8pNMJDnXJPpdUdvm-3" vertex="1">
          <mxGeometry x="74.11545454545463" y="93.09" width="118.1818181818183" height="16.434782608695652" as="geometry" />
        </mxCell>
        <mxCell id="L7jvv8ErK8NvXPGebQBz-6" value="" style="shape=image;aspect=fixed;image=data:image/svg+xml,PHN2ZyB4bWxucz0iaHR0cDovL3d3dy53My5vcmcvMjAwMC9zdmciIHZpZXdCb3g9IjAgMCAzNC4wNTgzIDM2LjkzMjYiPjxkZWZzPjxzdHlsZT4uY2xzLTF7ZmlsbDpub25lO308L3N0eWxlPjwvZGVmcz48ZyBpZD0iRWJlbmVfMiIgZGF0YS1uYW1lPSJFYmVuZSAyIj48cGF0aCBkPSJNNDYuODEyNSwyMC45ODU5Yy0uMDEwNS0zLjg0NC02Ljg3MTktNi44NTQxLTE1LjYzMTMtNi44NTQxcy0xNS42MiwzLjAxLTE1LjYzMDksNi44NTQxbC0uMDAxLjAwNDhWNDEuMzY3MmMwLDMuODQ4Niw2Ljg2NjIsNi44NjMzLDE1LjYzMTksNi44NjMzczE1LjYzMjMtMy4wMTQ3LDE1LjYzMjMtNi44NjMzVjIwLjk5MDdabS0xLjQ5OSwxMC4xOTMzYzAsMi41MzY2LTUuODAzNyw1LjM2MjgtMTQuMTMyMyw1LjM2MjhzLTE0LjEzMTktMi44MjYyLTE0LjEzMTktNS4zNjI4di03LjIyYzIuNDc4NywyLjMyMjcsNy44MDIxLDMuODk4OSwxNC4xMzE5LDMuODk4OXMxMS42NTM2LTEuNTc2MSwxNC4xMzIzLTMuODk4OVpNMzEuMTgxMiwxNS42MzE4YzguMzI4NiwwLDE0LjEzMjMsMi44MjYyLDE0LjEzMjMsNS4zNjI4UzM5LjUxLDI2LjM1NzksMzEuMTgxMiwyNi4zNTc5cy0xNC4xMzE5LTIuODI2Ny0xNC4xMzE5LTUuMzYzM1MyMi44NTMsMTUuNjMxOCwzMS4xODEyLDE1LjYzMThabTAsMzEuMDk4N2MtOC4zMjgyLDAtMTQuMTMxOS0yLjgyNjItMTQuMTMxOS01LjM2MzN2LTcuMjI0YzIuNDc4NywyLjMyMjcsNy44MDIxLDMuODk4OCwxNC4xMzE5LDMuODk4OHMxMS42NTM2LTEuNTc2MiwxNC4xMzIzLTMuODk4OHY3LjIyNEM0NS4zMTM1LDQzLjkwNDMsMzkuNTEsNDYuNzMwNSwzMS4xODEyLDQ2LjczMDVaIiB0cmFuc2Zvcm09InRyYW5zbGF0ZSgtMTQuMTMxMyAtMTIuNzE0OSkiLz48L2c+PGcgaWQ9IkViZW5lXzQiIGRhdGEtbmFtZT0iRWJlbmUgNCI+PHJlY3QgY2xhc3M9ImNscy0xIiB3aWR0aD0iMzQuMDU4MyIgaGVpZ2h0PSIzNi45MzI2Ii8+PC9nPjwvc3ZnPg==;" parent="opdz8pNMJDnXJPpdUdvm-3" vertex="1">
          <mxGeometry x="35.45363636363638" y="80.29913043478263" width="38.66086956521739" height="42.01826086956522" as="geometry" />
        </mxCell>
        <mxCell id="opdz8pNMJDnXJPpdUdvm-4" value="" style="group" parent="opdz8pNMJDnXJPpdUdvm-18" vertex="1" connectable="0">
          <mxGeometry x="460" y="120" width="220" height="150" as="geometry" />
        </mxCell>
        <mxCell id="UmfkLJFOqZ6cpchd0RoB-2" value="&lt;font face=&quot;Roboto&quot;&gt;P O D 2&lt;/font&gt;" style="rounded=1;whiteSpace=wrap;html=1;sketch=0;fontFamily=Montserrat;fontSource=https%3A%2F%2Ffonts.googleapis.com%2Fcss%3Ffamily%3DMontserrat;fontSize=20;align=left;dashed=1;strokeWidth=4;glass=0;arcSize=15;strokeColor=#ADADAC;fillColor=#D6D6D6;perimeterSpacing=0;verticalAlign=top;spacingTop=7;spacingLeft=19;" parent="opdz8pNMJDnXJPpdUdvm-4" vertex="1">
          <mxGeometry width="220" height="150" as="geometry" />
        </mxCell>
        <mxCell id="UmfkLJFOqZ6cpchd0RoB-4" value="" style="rounded=1;whiteSpace=wrap;html=1;strokeWidth=2;strokeColor=#7C7C7B;gradientDirection=south;arcSize=50;imageHeight=24;perimeterSpacing=10;" parent="opdz8pNMJDnXJPpdUdvm-4" vertex="1">
          <mxGeometry x="20" y="70" width="181.818181818182" height="62.608695652173914" as="geometry" />
        </mxCell>
        <mxCell id="UmfkLJFOqZ6cpchd0RoB-5" value="&lt;font face=&quot;Roboto&quot; style=&quot;font-size: 18px;&quot; color=&quot;#ff3333&quot;&gt;volume 2&lt;/font&gt;" style="text;strokeColor=none;fillColor=none;align=center;verticalAlign=middle;rounded=0;sketch=0;fontFamily=Montserrat;fontSource=https%3A%2F%2Ffonts.googleapis.com%2Fcss%3Ffamily%3DMontserrat;fontStyle=1;fontSize=24;spacing=0;html=1;" parent="opdz8pNMJDnXJPpdUdvm-4" vertex="1">
          <mxGeometry x="75.02545454545464" y="93.09000000000003" width="118.1818181818183" height="16.434782608695652" as="geometry" />
        </mxCell>
        <mxCell id="UmfkLJFOqZ6cpchd0RoB-6" value="" style="shape=image;aspect=fixed;image=data:image/svg+xml,PHN2ZyB4bWxucz0iaHR0cDovL3d3dy53My5vcmcvMjAwMC9zdmciIHZpZXdCb3g9IjAgMCAzNC4wNTgzIDM2LjkzMjYiPjxkZWZzPjxzdHlsZT4uY2xzLTF7ZmlsbDpub25lO308L3N0eWxlPjwvZGVmcz48ZyBpZD0iRWJlbmVfMiIgZGF0YS1uYW1lPSJFYmVuZSAyIj48cGF0aCBkPSJNNDYuODEyNSwyMC45ODU5Yy0uMDEwNS0zLjg0NC02Ljg3MTktNi44NTQxLTE1LjYzMTMtNi44NTQxcy0xNS42MiwzLjAxLTE1LjYzMDksNi44NTQxbC0uMDAxLjAwNDhWNDEuMzY3MmMwLDMuODQ4Niw2Ljg2NjIsNi44NjMzLDE1LjYzMTksNi44NjMzczE1LjYzMjMtMy4wMTQ3LDE1LjYzMjMtNi44NjMzVjIwLjk5MDdabS0xLjQ5OSwxMC4xOTMzYzAsMi41MzY2LTUuODAzNyw1LjM2MjgtMTQuMTMyMyw1LjM2MjhzLTE0LjEzMTktMi44MjYyLTE0LjEzMTktNS4zNjI4di03LjIyYzIuNDc4NywyLjMyMjcsNy44MDIxLDMuODk4OSwxNC4xMzE5LDMuODk4OXMxMS42NTM2LTEuNTc2MSwxNC4xMzIzLTMuODk4OVpNMzEuMTgxMiwxNS42MzE4YzguMzI4NiwwLDE0LjEzMjMsMi44MjYyLDE0LjEzMjMsNS4zNjI4UzM5LjUxLDI2LjM1NzksMzEuMTgxMiwyNi4zNTc5cy0xNC4xMzE5LTIuODI2Ny0xNC4xMzE5LTUuMzYzM1MyMi44NTMsMTUuNjMxOCwzMS4xODEyLDE1LjYzMThabTAsMzEuMDk4N2MtOC4zMjgyLDAtMTQuMTMxOS0yLjgyNjItMTQuMTMxOS01LjM2MzN2LTcuMjI0YzIuNDc4NywyLjMyMjcsNy44MDIxLDMuODk4OCwxNC4xMzE5LDMuODk4OHMxMS42NTM2LTEuNTc2MiwxNC4xMzIzLTMuODk4OHY3LjIyNEM0NS4zMTM1LDQzLjkwNDMsMzkuNTEsNDYuNzMwNSwzMS4xODEyLDQ2LjczMDVaIiB0cmFuc2Zvcm09InRyYW5zbGF0ZSgtMTQuMTMxMyAtMTIuNzE0OSkiLz48L2c+PGcgaWQ9IkViZW5lXzQiIGRhdGEtbmFtZT0iRWJlbmUgNCI+PHJlY3QgY2xhc3M9ImNscy0xIiB3aWR0aD0iMzQuMDU4MyIgaGVpZ2h0PSIzNi45MzI2Ii8+PC9nPjwvc3ZnPg==;" parent="opdz8pNMJDnXJPpdUdvm-4" vertex="1">
          <mxGeometry x="36.363636363636374" y="80.29913043478263" width="38.66086956521739" height="42.01826086956522" as="geometry" />
        </mxCell>
        <mxCell id="opdz8pNMJDnXJPpdUdvm-5" value="" style="group" parent="opdz8pNMJDnXJPpdUdvm-18" vertex="1" connectable="0">
          <mxGeometry x="970" y="120" width="220" height="150" as="geometry" />
        </mxCell>
        <mxCell id="opdz8pNMJDnXJPpdUdvm-6" value="&lt;font face=&quot;Roboto&quot;&gt;P O D 3&lt;/font&gt;" style="rounded=1;whiteSpace=wrap;html=1;sketch=0;fontFamily=Montserrat;fontSource=https%3A%2F%2Ffonts.googleapis.com%2Fcss%3Ffamily%3DMontserrat;fontSize=20;align=left;dashed=1;strokeWidth=4;glass=0;arcSize=15;strokeColor=#ADADAC;fillColor=#D6D6D6;perimeterSpacing=0;verticalAlign=top;spacingTop=7;spacingLeft=19;" parent="opdz8pNMJDnXJPpdUdvm-5" vertex="1">
          <mxGeometry width="220" height="150" as="geometry" />
        </mxCell>
        <mxCell id="opdz8pNMJDnXJPpdUdvm-7" value="" style="rounded=1;whiteSpace=wrap;html=1;strokeWidth=2;strokeColor=#7C7C7B;gradientDirection=south;arcSize=50;imageHeight=24;perimeterSpacing=10;" parent="opdz8pNMJDnXJPpdUdvm-5" vertex="1">
          <mxGeometry x="20" y="70" width="181.818181818182" height="62.608695652173914" as="geometry" />
        </mxCell>
        <mxCell id="opdz8pNMJDnXJPpdUdvm-8" value="&lt;font face=&quot;Roboto&quot; style=&quot;font-size: 18px;&quot; color=&quot;#ff3333&quot;&gt;volume 3&lt;/font&gt;" style="text;strokeColor=none;fillColor=none;align=center;verticalAlign=middle;rounded=0;sketch=0;fontFamily=Montserrat;fontSource=https%3A%2F%2Ffonts.googleapis.com%2Fcss%3Ffamily%3DMontserrat;fontStyle=1;fontSize=24;spacing=0;html=1;" parent="opdz8pNMJDnXJPpdUdvm-5" vertex="1">
          <mxGeometry x="75.02545454545464" y="93.09000000000003" width="118.1818181818183" height="16.434782608695652" as="geometry" />
        </mxCell>
        <mxCell id="opdz8pNMJDnXJPpdUdvm-9" value="" style="shape=image;aspect=fixed;image=data:image/svg+xml,PHN2ZyB4bWxucz0iaHR0cDovL3d3dy53My5vcmcvMjAwMC9zdmciIHZpZXdCb3g9IjAgMCAzNC4wNTgzIDM2LjkzMjYiPjxkZWZzPjxzdHlsZT4uY2xzLTF7ZmlsbDpub25lO308L3N0eWxlPjwvZGVmcz48ZyBpZD0iRWJlbmVfMiIgZGF0YS1uYW1lPSJFYmVuZSAyIj48cGF0aCBkPSJNNDYuODEyNSwyMC45ODU5Yy0uMDEwNS0zLjg0NC02Ljg3MTktNi44NTQxLTE1LjYzMTMtNi44NTQxcy0xNS42MiwzLjAxLTE1LjYzMDksNi44NTQxbC0uMDAxLjAwNDhWNDEuMzY3MmMwLDMuODQ4Niw2Ljg2NjIsNi44NjMzLDE1LjYzMTksNi44NjMzczE1LjYzMjMtMy4wMTQ3LDE1LjYzMjMtNi44NjMzVjIwLjk5MDdabS0xLjQ5OSwxMC4xOTMzYzAsMi41MzY2LTUuODAzNyw1LjM2MjgtMTQuMTMyMyw1LjM2MjhzLTE0LjEzMTktMi44MjYyLTE0LjEzMTktNS4zNjI4di03LjIyYzIuNDc4NywyLjMyMjcsNy44MDIxLDMuODk4OSwxNC4xMzE5LDMuODk4OXMxMS42NTM2LTEuNTc2MSwxNC4xMzIzLTMuODk4OVpNMzEuMTgxMiwxNS42MzE4YzguMzI4NiwwLDE0LjEzMjMsMi44MjYyLDE0LjEzMjMsNS4zNjI4UzM5LjUxLDI2LjM1NzksMzEuMTgxMiwyNi4zNTc5cy0xNC4xMzE5LTIuODI2Ny0xNC4xMzE5LTUuMzYzM1MyMi44NTMsMTUuNjMxOCwzMS4xODEyLDE1LjYzMThabTAsMzEuMDk4N2MtOC4zMjgyLDAtMTQuMTMxOS0yLjgyNjItMTQuMTMxOS01LjM2MzN2LTcuMjI0YzIuNDc4NywyLjMyMjcsNy44MDIxLDMuODk4OCwxNC4xMzE5LDMuODk4OHMxMS42NTM2LTEuNTc2MiwxNC4xMzIzLTMuODk4OHY3LjIyNEM0NS4zMTM1LDQzLjkwNDMsMzkuNTEsNDYuNzMwNSwzMS4xODEyLDQ2LjczMDVaIiB0cmFuc2Zvcm09InRyYW5zbGF0ZSgtMTQuMTMxMyAtMTIuNzE0OSkiLz48L2c+PGcgaWQ9IkViZW5lXzQiIGRhdGEtbmFtZT0iRWJlbmUgNCI+PHJlY3QgY2xhc3M9ImNscy0xIiB3aWR0aD0iMzQuMDU4MyIgaGVpZ2h0PSIzNi45MzI2Ii8+PC9nPjwvc3ZnPg==;" parent="opdz8pNMJDnXJPpdUdvm-5" vertex="1">
          <mxGeometry x="36.363636363636374" y="80.29913043478263" width="38.66086956521739" height="42.01826086956522" as="geometry" />
        </mxCell>
        <mxCell id="opdz8pNMJDnXJPpdUdvm-11" value="" style="group" parent="opdz8pNMJDnXJPpdUdvm-18" vertex="1" connectable="0">
          <mxGeometry x="874.99" y="107" width="50" height="163" as="geometry" />
        </mxCell>
        <mxCell id="PLJ0rYsEf3zSfFruj5PY-23" value="" style="shape=image;verticalLabelPosition=bottom;verticalAlign=top;imageAspect=0;aspect=fixed;image=data:image/svg+xml,PHN2ZyB4bWxucz0iaHR0cDovL3d3dy53My5vcmcvMjAwMC9zdmciIHZpZXdCb3g9IjAgMCA0MS4xODQ2MDA4MzAwNzgxMjUgNDEuMTg0NjAwODMwMDc4MTI1IiB3aWR0aD0iNDEuMTg0NjAwODMwMDc4MTI1IiBoZWlnaHQ9IjQxLjE4NDYwMDgzMDA3ODEyNSI+PGRlZnM+PHN0eWxlPi5jbHMtMXtmaWxsOm5vbmU7fTwvc3R5bGU+PC9kZWZzPjxnIGlkPSJFYmVuZV8yIiBkYXRhLW5hbWU9IkViZW5lIDIiPjxwYXRoIGQ9Ik00OS42MDY0LDMxLjkzMTJhLjc1Ljc1LDAsMCwwLDAtMS41SDQzLjk0NzN2LTUuNzFoNS42NTkxYS43NS43NSwwLDAsMCwwLTEuNUg0My45NDczVjIxLjIzYTIuODE3OSwyLjgxNzksMCwwLDAtMi44MTQ1LTIuODE0OUgzOS4xNDA2VjEyLjc1NTlhLjc1Ljc1LDAsMCwwLTEuNSwwdjUuNjU4N0gzMS45MzEyVjEyLjc1NTlhLjc1Ljc1LDAsMCwwLTEuNSwwdjUuNjU4N2gtNS43MVYxMi43NTU5YS43NS43NSwwLDAsMC0xLjUsMHY1LjY1ODdIMjEuMjNBMi44MTc5LDIuODE3OSwwLDAsMCwxOC40MTQ2LDIxLjIzdjEuOTkxN0gxMi43NTU5YS43NS43NSwwLDAsMCwwLDEuNWg1LjY1ODd2NS43MUgxMi43NTU5YS43NS43NSwwLDAsMCwwLDEuNWg1LjY1ODd2NS43MDk0SDEyLjc1NTlhLjc1Ljc1LDAsMCwwLDAsMS41aDUuNjU4N3YxLjk5MjJBMi44MTc5LDIuODE3OSwwLDAsMCwyMS4yMyw0My45NDczaDEuOTkxN3Y1LjY1OTFhLjc1Ljc1LDAsMCwwLDEuNSwwVjQzLjk0NzNoNS43MXY1LjY1OTFhLjc1Ljc1LDAsMCwwLDEuNSwwVjQzLjk0NzNoNS43MDk0djUuNjU5MWEuNzUuNzUsMCwwLDAsMS41LDBWNDMuOTQ3M2gxLjk5MjJhMi44MTc4LDIuODE3OCwwLDAsMCwyLjgxNDUtMi44MTQ1VjM5LjE0MDZoNS42NTkxYS43NS43NSwwLDAsMCwwLTEuNUg0My45NDczVjMxLjkzMTJabS03LjE1OTEsOS4yMDE2YTEuMzE2MywxLjMxNjMsMCwwLDEtMS4zMTQ1LDEuMzE0NUgyMS4yM2ExLjMxNjMsMS4zMTYzLDAsMCwxLTEuMzE0OS0xLjMxNDVWMjEuMjNBMS4zMTYzLDEuMzE2MywwLDAsMSwyMS4yMywxOS45MTQ2SDQxLjEzMjhBMS4zMTYzLDEuMzE2MywwLDAsMSw0Mi40NDczLDIxLjIzWiIgdHJhbnNmb3JtPSJ0cmFuc2xhdGUoLTEwLjU4ODkgLTEwLjU4ODkpIi8+PHBhdGggZD0iTTM5Ljk5MzIsMjEuNjE5MUgyMi4zNjkxYS43NS43NSwwLDAsMC0uNzUuNzVWMzkuOTkzMmEuNzUuNzUsMCwwLDAsLjc1Ljc1SDM5Ljk5MzJhLjc1Ljc1LDAsMCwwLC43NS0uNzVWMjIuMzY5MUEuNzUuNzUsMCwwLDAsMzkuOTkzMiwyMS42MTkxWm0tLjc1LDE3LjYyNDFIMjMuMTE5MVYyMy4xMTkxSDM5LjI0MzJaIiB0cmFuc2Zvcm09InRyYW5zbGF0ZSgtMTAuNTg4OSAtMTAuNTg4OSkiLz48cGF0aCBkPSJNMjYuNzQsMzMuMzU0NWEyLjAzNjIsMi4wMzYyLDAsMCwxLS43NzU0LS4xNDg0LDEuODkyNiwxLjg5MjYsMCwwLDEtLjYzLS40MTUxLDIuMDAyMiwyLjAwMjIsMCwwLDEtLjU4LTEuNDI3N3YtLjAxMDhhMi4wMDQzLDIuMDA0MywwLDAsMSwuNTc3Ni0xLjQyMTgsMS45MjYxLDEuOTI2MSwwLDAsMSwuNjQwNi0uNDI2MywyLjEsMi4xLDAsMCwxLC44MTExLS4xNTM4LDIuMzE3NCwyLjMxNzQsMCwwLDEsLjUzOS4wNTc2LDEuODMzNiwxLjgzMzYsMCwwLDEsLjQ0MjkuMTY1LDEuNzY5MiwxLjc2OTIsMCwwLDEsLjM2MjguMjU1NCwyLjExMzcsMi4xMTM3LDAsMCwxLC4yODkxLjMyNDdsLS44MDMzLjYyMTZhMS4zODgsMS4zODgsMCwwLDAtLjM2MjctLjMzLjkwMjMuOTAyMywwLDAsMC0uNDc4Ni0uMTIxMS44NTI3Ljg1MjcsMCwwLDAtLjM3MTEuMDguODg3MS44ODcxLDAsMCwwLS4yODkuMjE2OCwxLjAxMzMsMS4wMTMzLDAsMCwwLS4xODk1LjMyNDcsMS4xMzY4LDEuMTM2OCwwLDAsMC0uMDY4OC4zOTZ2LjAxMTJhMS4xOCwxLjE4LDAsMCwwLC4wNjg4LjQwNDMsMS4wMDQzLDEuMDA0MywwLDAsMCwuMTg5NS4zMjcyLjg5MTQuODkxNCwwLDAsMCwuMjg5LjIxNzguODU5NC44NTk0LDAsMCwwLC4zNzExLjA3OTEsMS4wMzIyLDEuMDMyMiwwLDAsMCwuMjcyLS4wMzMyLjgyMi44MjIsMCwwLDAsLjIyNTYtLjA5NTcsMS4yMywxLjIzLDAsMCwwLC4xOTI5LS4xNDg1LDIuNDIyMSwyLjQyMjEsMCwwLDAsLjE3ODctLjE5bC44MDI3LjU3MThhMi44MzYxLDIuODM2MSwwLDAsMS0uMy4zNDY2LDEuNzIsMS43MiwwLDAsMS0uMzY4Mi4yNzU0LDEuOTYsMS45NiwwLDAsMS0uNDYyNC4xODE3QTIuMzA2NywyLjMwNjcsMCwwLDEsMjYuNzQsMzMuMzU0NVoiIHRyYW5zZm9ybT0idHJhbnNsYXRlKC0xMC41ODg5IC0xMC41ODg5KSIvPjxwYXRoIGQ9Ik0yOS4zNjkxLDI5LjQyNzJoMS42NWEyLjI0NzgsMi4yNDc4LDAsMCwxLC42Ni4wOTA5LDEuNDQyLDEuNDQyLDAsMCwxLC41MDYzLjI2NDEsMS4xNiwxLjE2LDAsMCwxLC4zMjEzLjQyNjMsMS4zOSwxLjM5LDAsMCwxLC4xMTIzLjU3MTh2LjAxMTJhMS4zNzc4LDEuMzc3OCwwLDAsMS0uMTIzLjU5OTEsMS4yMjkyLDEuMjI5MiwwLDAsMS0uMzQzOC40MzQ2LDEuNDgyMSwxLjQ4MjEsMCwwLDEtLjUyNTMuMjY0NiwyLjM4NzUsMi4zODc1LDAsMCwxLS42NjI2LjA4NzloLS41Mjc5djEuMUgyOS4zNjkxWm0xLjU3MzMsMS45MTQxYS42OC42OCwwLDAsMCwuNDQ4Mi0uMTM1Mi40NTQ3LjQ1NDcsMCwwLDAsLjE2MjEtLjM2Nzd2LS4wMTEzYS40NTcyLjQ1NzIsMCwwLDAtLjE2MjEtLjM3ODkuNzEuNzEsMCwwLDAtLjQ1MzYtLjEzaC0uNTAwNXYxLjAyMjlaIiB0cmFuc2Zvcm09InRyYW5zbGF0ZSgtMTAuNTg4OSAtMTAuNTg4OSkiLz48cGF0aCBkPSJNMzUuMjcxNSwzMy4zNDg2YTIuNDMzMiwyLjQzMzIsMCwwLDEtLjc0MzItLjEwNDUsMS4zNzc5LDEuMzc3OSwwLDAsMS0uOTE2LS44NzExLDIuMjYsMi4yNiwwLDAsMS0uMTIzLS43ODQxVjI5LjQyNzJoMS4wODg4djIuMTRhLjg3MS44NzEsMCwwLDAsLjE5MDUuNjE4Ni42NzcyLjY3NzIsMCwwLDAsLjUxMzYuMjAxMi42OS42OSwwLDAsMCwuNTEyNy0uMTkyNC44MjU2LjgyNTYsMCwwLDAsLjE5MTQtLjZ2LTIuMTY3aDEuMDg4OXYyLjEzNDNhMi4yNDEzLDIuMjQxMywwLDAsMS0uMTMuODA1NywxLjM5MDYsMS4zOTA2LDAsMCwxLS45Mjg3Ljg3NjlBMi40NjQxLDIuNDY0MSwwLDAsMSwzNS4yNzE1LDMzLjM0ODZaIiB0cmFuc2Zvcm09InRyYW5zbGF0ZSgtMTAuNTg4OSAtMTAuNTg4OSkiLz48L2c+PGcgaWQ9IkViZW5lXzQiIGRhdGEtbmFtZT0iRWJlbmUgNCI+PHJlY3QgY2xhc3M9ImNscy0xIiB3aWR0aD0iNDEuMTg0NiIgaGVpZ2h0PSI0MS4xODQ2Ii8+PC9nPjwvc3ZnPg==;align=left;" parent="opdz8pNMJDnXJPpdUdvm-11" vertex="1">
          <mxGeometry y="113" width="50" height="50" as="geometry" />
        </mxCell>
        <mxCell id="PLJ0rYsEf3zSfFruj5PY-24" value="" style="shape=image;verticalLabelPosition=bottom;verticalAlign=top;imageAspect=0;aspect=fixed;image=data:image/svg+xml,PHN2ZyB4bWxucz0iaHR0cDovL3d3dy53My5vcmcvMjAwMC9zdmciIHZpZXdCb3g9IjAgMCA0MC4zMjg0OTg4NDAzMzIwMyA0MC4zMjg0OTg4NDAzMzIwMyIgd2lkdGg9IjQwLjMyODQ5ODg0MDMzMjAzIiBoZWlnaHQ9IjQwLjMyODQ5ODg0MDMzMjAzIj48ZGVmcz48c3R5bGU+LmNscy0xe2ZpbGw6bm9uZTt9PC9zdHlsZT48L2RlZnM+PGcgaWQ9IkViZW5lXzIiIGRhdGEtbmFtZT0iRWJlbmUgMiI+PHBhdGggZD0iTTQ5LjA1MjcsMzcuMjI3NSwyNC43NjQyLDEyLjk0MDlhMi40MTc0LDIuNDE3NCwwLDAsMC0zLjMzODksMEwxMi42OCwyMS42ODlhMS40NzI0LDEuNDcyNCwwLDAsMCwwLDIuMDgwNWw4LjE0ODEsOC4xNDYzLjAwMzcuMDA1Ni4wMDU2LjAwMzcsMi4zNzQzLDIuMzczN2ExLjQ3NjYsMS40NzY2LDAsMCwwLDIuMDgtLjAwMDlsMS4yMTM5LTEuMjEzOWExLjcsMS43LDAsMCwxLDIuNDEyNiwyLjM5NjVsLTEuMjIzNywxLjIyMzZhMS40NzQ3LDEuNDc0NywwLDAsMCwuMDAxNSwyLjA4TDM4LjIyNzUsNDkuMzEzNWExLjQ3MTMsMS40NzEzLDAsMCwwLDIuMDgsMGw4Ljc0NTEtOC43NDcxQTIuMzY0NiwyLjM2NDYsMCwwLDAsNDkuMDUyNywzNy4yMjc1Wm0tMS4wNjA1LDIuMjc4NC04LjcwNDEsOC43NDctMS44NS0xLjg0MjksMS43ODItMS43ODIxYS43NS43NSwwLDAsMC0xLjA2MDUtMS4wNkwzNi4zNzUsNDUuMzUxNmwtMS44MzE3LTEuODI0M0wzNi4zMzExLDQxLjc0QS43NS43NSwwLDAsMCwzNS4yNzA1LDQwLjY4bC0xLjc5LDEuNzg5MkwzMS42NSw0MC42NDU2bDEuNzkzNS0xLjc5MzFhLjc1Ljc1LDAsMSwwLTEuMDYwNi0xLjA2bC0xLjc5NTYsMS43OTUyLTEuODMwOS0xLjgyMzUsMS4yMy0xLjIzYTMuMiwzLjIsMCwwLDAtNC41MzM3LTQuNTE3NmwtMS4xOCwxLjIyMDctMS44NTE0LTEuODQzNywxLjc4MjUtMS43ODE4YS43NS43NSwwLDAsMC0xLjA2LTEuMDZsLTEuNzg0OCwxLjc4MzktMS44My0xLjgyMjgsMS43ODc5LTEuNzg4M2EuNzUuNzUsMCwxLDAtMS4wNjA1LTEuMDYwNWwtMS43OSwxLjc5LTEuODMxMS0xLjgyMzUsMS43OTQtMS43OTQxYS43NS43NSwwLDAsMC0xLjA2MDUtMS4wNjA1bC0xLjc5NjMsMS43OTYyLTEuODMtMS44MjI2LDguNzQ1Ni04Ljc0OGEuODgxNC44ODE0LDAsMCwxLDEuMjE3MywwTDQ3Ljk5MjIsMzguMjg4MUEuODYzNi44NjM2LDAsMCwxLDQ3Ljk5MjIsMzkuNTA1OVoiIHRyYW5zZm9ybT0idHJhbnNsYXRlKC0xMC44MzIgLTEwLjg1NCkiLz48cGF0aCBkPSJNMzkuNzk3OSwzMi41OTM4YS43NS43NSwwLDAsMC0xLjA2MDYsMEwzNS44NSwzNS40ODE0YS43NS43NSwwLDAsMCwwLDEuMDYwNmw0LjYxODIsNC42MmEuNzUuNzUsMCwwLDAsMS4wNjA1LDBsMi44ODc3LTIuODg2N2EuNzUuNzUsMCwwLDAsMC0xLjA2MDZabTEuMiw2Ljk3NzUtMy41NTc2LTMuNTYsMS44MjcyLTEuODI3MSwzLjU1NzYsMy41NloiIHRyYW5zZm9ybT0idHJhbnNsYXRlKC0xMC44MzIgLTEwLjg1NCkiLz48cGF0aCBkPSJNMjQuNzgwOCwxNy41NzY3YS43NS43NSwwLDAsMC0xLjA2MDYsMEwyMC44MzMsMjAuNDYzOWEuNzUuNzUsMCwwLDAsMCwxLjA2MDVsNC42Miw0LjYyMDZhLjc1Ljc1LDAsMCwwLDEuMDYwNiwwbDIuODg3Ny0yLjg4NzdhLjc1Ljc1LDAsMCwwLDAtMS4wNjA1Wm0xLjIwMjYsNi45Nzc1LTMuNTYtMy41NiwxLjgyNjctMS44MjY2LDMuNTYsMy41NloiIHRyYW5zZm9ybT0idHJhbnNsYXRlKC0xMC44MzIgLTEwLjg1NCkiLz48L2c+PGcgaWQ9IkViZW5lXzQiIGRhdGEtbmFtZT0iRWJlbmUgNCI+PHJlY3QgY2xhc3M9ImNscy0xIiB3aWR0aD0iNDAuMzI4NSIgaGVpZ2h0PSI0MC4zMjg1Ii8+PC9nPjwvc3ZnPg==;align=left;" parent="opdz8pNMJDnXJPpdUdvm-11" vertex="1">
          <mxGeometry x="4" y="60" width="42" height="42" as="geometry" />
        </mxCell>
        <mxCell id="PLJ0rYsEf3zSfFruj5PY-28" value="" style="shape=image;verticalLabelPosition=bottom;verticalAlign=top;imageAspect=0;aspect=fixed;image=data:image/svg+xml,PHN2ZyB4bWxucz0iaHR0cDovL3d3dy53My5vcmcvMjAwMC9zdmciIHZpZXdCb3g9IjAgMCAzNC4wMTU3MDEyOTM5NDUzMSA0MS44MTEwMDA4MjM5NzQ2MSIgd2lkdGg9IjM0LjAxNTcwMTI5Mzk0NTMxIiBoZWlnaHQ9IjQxLjgxMTAwMDgyMzk3NDYxIj48ZGVmcz48c3R5bGU+LmNscy0xe2ZpbGw6bm9uZTt9PC9zdHlsZT48L2RlZnM+PGcgaWQ9IkViZW5lXzIiIGRhdGEtbmFtZT0iRWJlbmUgMiI+PHBhdGggZD0iTTQyLjY5NzYsMTMuMTkyOWEyLjU3NywyLjU3NywwLDAsMSwyLjU3NDEsMi41NzQxVjQ2LjYwMjRhMi41NzcsMi41NzcsMCwwLDEtMi41NzQxLDIuNTc0MUgxOS42NjQ2YTIuNTc2OSwyLjU3NjksMCwwLDEtMi41NzQtMi41NzQxVjE1Ljc2N2EyLjU3NjksMi41NzY5LDAsMCwxLDIuNTc0LTIuNTc0MWgyMy4wMzNtMC0xLjVIMTkuNjY0NmE0LjA3NCw0LjA3NCwwLDAsMC00LjA3NCw0LjA3NDFWNDYuNjAyNGE0LjA3NCw0LjA3NCwwLDAsMCw0LjA3NCw0LjA3NDFoMjMuMDMzYTQuMDc0MSw0LjA3NDEsMCwwLDAsNC4wNzQxLTQuMDc0MVYxNS43NjdhNC4wNzQxLDQuMDc0MSwwLDAsMC00LjA3NDEtNC4wNzQxWiIgdHJhbnNmb3JtPSJ0cmFuc2xhdGUoLTE0LjE3MzIgLTEwLjI3NTYpIi8+PHBhdGggZD0iTTQyLjcwOTEsNDcuNjdhMS4wNjI4LDEuMDYyOCwwLDEsMSwxLjA2MjgtMS4wNjI4QTEuMDQwOCwxLjA0MDgsMCwwLDEsNDIuNzA5MSw0Ny42N1oiIHRyYW5zZm9ybT0idHJhbnNsYXRlKC0xNC4xNzMyIC0xMC4yNzU2KSIvPjxwYXRoIGQ9Ik0xOS42NjgzLDQ3LjY1NDNhMS4wNjI4LDEuMDYyOCwwLDEsMSwxLjA2MjctMS4wNjI3QTEuMDQwNiwxLjA0MDYsMCwwLDEsMTkuNjY4Myw0Ny42NTQzWiIgdHJhbnNmb3JtPSJ0cmFuc2xhdGUoLTE0LjE3MzIgLTEwLjI3NTYpIi8+PHBhdGggZD0iTTE5LjY1NzgsMTYuODIyOUExLjA2MjgsMS4wNjI4LDAsMSwxLDIwLjcyMDUsMTUuNzYsMS4wNDA3LDEuMDQwNywwLDAsMSwxOS42NTc4LDE2LjgyMjlaIiB0cmFuc2Zvcm09InRyYW5zbGF0ZSgtMTQuMTczMiAtMTAuMjc1NikiLz48cGF0aCBkPSJNMTkuNjU3OCwxNi44MjI5QTEuMDYyOCwxLjA2MjgsMCwxLDEsMjAuNzIwNSwxNS43NiwxLjA0MDcsMS4wNDA3LDAsMCwxLDE5LjY1NzgsMTYuODIyOVoiIHRyYW5zZm9ybT0idHJhbnNsYXRlKC0xNC4xNzMyIC0xMC4yNzU2KSIvPjxwYXRoIGQ9Ik0xOS42NTc4LDE2LjgyMjlBMS4wNjI4LDEuMDYyOCwwLDEsMSwyMC43MjA1LDE1Ljc2LDEuMDQwNywxLjA0MDcsMCwwLDEsMTkuNjU3OCwxNi44MjI5WiIgdHJhbnNmb3JtPSJ0cmFuc2xhdGUoLTE0LjE3MzIgLTEwLjI3NTYpIi8+PHBhdGggZD0iTTQyLjcwOTEsMTYuODIyOUExLjA2MjgsMS4wNjI4LDAsMSwxLDQzLjc3MTksMTUuNzYsMS4wNDA4LDEuMDQwOCwwLDAsMSw0Mi43MDkxLDE2LjgyMjlaIiB0cmFuc2Zvcm09InRyYW5zbGF0ZSgtMTQuMTczMiAtMTAuMjc1NikiLz48cGF0aCBkPSJNNDIuNzA5MiwxNi44MjI5QTEuMDQwOCwxLjA0MDgsMCwwLDAsNDMuNzcxOSwxNS43NmExLjA2MjgsMS4wNjI4LDAsMSwwLTEuMDYyNywxLjA2MjhaIiB0cmFuc2Zvcm09InRyYW5zbGF0ZSgtMTQuMTczMiAtMTAuMjc1NikiLz48cGF0aCBkPSJNMzguOTA2LDE3LjI2YTQuMTQyNSw0LjE0MjUsMCwwLDAsMi4zMDMyLDIuMzEzMlYzOC41MzY5YS44OTcxLjg5NzEsMCwwLDEtLjg5NjEuODk2MUgzNi45NWExMi42ODQsMTIuNjg0LDAsMCwxLTEyLjY3LTEyLjY3di04LjZhLjkwNDYuOTA0NiwwLDAsMSwuOTAzNi0uOTAzNkgzOC45MDZtMS4yMTQ3LTEuNUgyNS4xODRBMi40MDM2LDIuNDAzNiwwLDAsMCwyMi43OCwxOC4xNjM3djguNmExNC4xNywxNC4xNywwLDAsMCwxNC4xNywxNC4xN2gzLjM2M2EyLjM5NjEsMi4zOTYxLDAsMCwwLDIuMzk2MS0yLjM5NjFWMTguMzY1NkEyLjYwODIsMi42MDgyLDAsMCwxLDQwLjEyMDcsMTUuNzZaIiB0cmFuc2Zvcm09InRyYW5zbGF0ZSgtMTQuMTczMiAtMTAuMjc1NikiLz48cGF0aCBkPSJNMjcuNjI4NiwyOC40NzhhMy44MTQ3LDMuODE0NywwLDAsMS0xLjI1NDktLjIwNTEsMy4wNCwzLjA0LDAsMCwxLTEuMDUxMi0uNjE1N2wuNzU5Mi0uOTA5MmEyLjUwMywyLjUwMywwLDAsMCwxLjU5NjIuNTkwOS44MTI3LjgxMjcsMCwwLDAsLjQxODUtLjA4NzkuMjc2Ni4yNzY2LDAsMCwwLC4xNDQtLjI0OXYtLjAxNDJhLjI2MzkuMjYzOSwwLDAsMC0uMDM1MS0uMTM2Ny4zNTIzLjM1MjMsMCwwLDAtLjEzLS4xMTU3LDEuMzE1MSwxLjMxNTEsMCwwLDAtLjI1MjktLjEwODlxLS4xNTgyLS4wNTI4LS40MTEyLS4xMDg5LS4zOTQtLjA5MDktLjczMTQtLjJhMi4yMywyLjIzLDAsMCwxLS41ODc0LS4yODA4LDEuMTk4MywxLjE5ODMsMCwwLDEtLjUzNzYtMS4wNjM1VjI0Ljk2YTEuNTEzMywxLjUxMzMsMCwwLDEsLjEzLS42MzE5LDEuNDA0NiwxLjQwNDYsMCwwLDEsLjM4LS40OTg1LDEuNzkzNCwxLjc5MzQsMCwwLDEsLjYwMS0uMzI2MiwyLjUzODMsMi41MzgzLDAsMCwxLC43OTQ1LS4xMTU3LDMuNTQ2MywzLjU0NjMsMCwwLDEsMS4xMjg5LjE2NiwyLjg0ODYsMi44NDg2LDAsMCwxLC44OTY1LjQ5MTdsLS42ODIyLjk2NjNhMi43NzI5LDIuNzcyOSwwLDAsMC0uNjkyOC0uMzYxOCwyLjA4NzUsMi4wODc1LDAsMCwwLS42ODU2LS4xMjMuNjE1My42MTUzLDAsMCwwLS4zNjkxLjA5MTMuMjcxLjI3MSwwLDAsMC0uMTIzMS4yMjQ2di4wMTM3YS4yNzU2LjI3NTYsMCwwLDAsLjAzOTEuMTQ3NC4zNS4zNSwwLDAsMCwuMTMzMy4xMTU3LDEuNDcsMS40NywwLDAsMCwuMjYuMTA1NXEuMTY0OS4wNTI4LjQxODUuMTA4OWE1Ljg5ODEsNS44OTgxLDAsMCwxLC43NjI3LjIxMzksMi4yOSwyLjI5LDAsMCwxLC41OC4yOTgzLDEuMTk2NCwxLjE5NjQsMCwwLDEsLjM2NTcuNDI0OCwxLjI5MzYsMS4yOTM2LDAsMCwxLC4xMjY1LjU5MzN2LjAxMzZhMS41MTIxLDEuNTEyMSwwLDAsMS0uMTQ0MS42NzM5LDEuNDQzNiwxLjQ0MzYsMCwwLDEtLjQwNDMuNTAxOSwxLjgxODQsMS44MTg0LDAsMCwxLS42MjYuMzE1OUEyLjg0MzksMi44NDM5LDAsMCwxLDI3LjYyODYsMjguNDc4WiIgdHJhbnNmb3JtPSJ0cmFuc2xhdGUoLTE0LjE3MzIgLTEwLjI3NTYpIi8+PHBhdGggZD0iTTMyLjU1LDI4LjQ3OGEzLjgxNTUsMy44MTU1LDAsMCwxLTEuMjU1NC0uMjA1MSwzLjA0LDMuMDQsMCwwLDEtMS4wNTEyLS42MTU3bC43NTkzLS45MDkyYTIuNTAyNiwyLjUwMjYsMCwwLDAsMS41OTYxLjU5MDkuODEuODEsMCwwLDAsLjQxOC0uMDg3OS4yNzUyLjI3NTIsMCwwLDAsLjE0NDUtLjI0OXYtLjAxNDJhLjI2MzkuMjYzOSwwLDAsMC0uMDM1MS0uMTM2Ny4zNS4zNSwwLDAsMC0uMTMtLjExNTcsMS4zMjkxLDEuMzI5MSwwLDAsMC0uMjUyOS0uMTA4OWMtLjEwNTUtLjAzNTItLjI0MzItLjA3MTMtLjQxMjEtLjEwODktLjI2MjctLjA2MDYtLjUwNTktLjEyNzUtLjczMTUtLjJhMi4yMzM2LDIuMjMzNiwwLDAsMS0uNTg2OS0uMjgwOCwxLjE5ODgsMS4xOTg4LDAsMCwxLS41Mzc2LTEuMDYzNVYyNC45NmExLjUxMzMsMS41MTMzLDAsMCwxLC4xMy0uNjMxOSwxLjQwNDYsMS40MDQ2LDAsMCwxLC4zOC0uNDk4NSwxLjc5MzQsMS43OTM0LDAsMCwxLC42MDEtLjMyNjIsMi41NDExLDIuNTQxMSwwLDAsMSwuNzk1LS4xMTU3LDMuNTM3OCwzLjUzNzgsMCwwLDEsMS4xMjc5LjE2NiwyLjgzNjYsMi44MzY2LDAsMCwxLC44OTY1LjQ5MTdsLS42ODE3Ljk2NjNhMi43NywyLjc3LDAsMCwwLS42OTIzLS4zNjE4LDIuMDk2MSwyLjA5NjEsMCwwLDAtLjY4NTYtLjEyMy42MTUzLjYxNTMsMCwwLDAtLjM2OTEuMDkxMy4yNzEuMjcxLDAsMCwwLS4xMjMxLjIyNDZ2LjAxMzdhLjI3MTMuMjcxMywwLDAsMCwuMDM5MS4xNDc0LjM1MTguMzUxOCwwLDAsMCwuMTMyOC4xMTU3LDEuNDkzNCwxLjQ5MzQsMCwwLDAsLjI2LjEwNTVxLjE2NTQuMDUyOC40MTg5LjEwODlhNS45MTYyLDUuOTE2MiwwLDAsMSwuNzYyNy4yMTM5LDIuMjksMi4yOSwwLDAsMSwuNTguMjk4MywxLjIwNjksMS4yMDY5LDAsMCwxLC4zNjYyLjQyNDgsMS4zLDEuMywwLDAsMSwuMTI2LjU5MzN2LjAxMzZhMS41MTg4LDEuNTE4OCwwLDAsMS0uMTQzNi42NzM5LDEuNDU1LDEuNDU1LDAsMCwxLS40MDQzLjUwMTksMS44MzIsMS44MzIsMCwwLDEtLjYyNi4zMTU5QTIuODQ2NCwyLjg0NjQsMCwwLDEsMzIuNTUsMjguNDc4WiIgdHJhbnNmb3JtPSJ0cmFuc2xhdGUoLTE0LjE3MzIgLTEwLjI3NTYpIi8+PHBhdGggZD0iTTM1LjUzNzYsMjMuNDcxN2gxLjlhMy41OCwzLjU4LDAsMCwxLDEuMTc3Ny4xNzkyLDIuNDkxMiwyLjQ5MTIsMCwwLDEsLjg3MTEuNTAyNCwyLjE0MzksMi4xNDM5LDAsMCwxLC41NDIuNzcsMi41Mjg2LDIuNTI4NiwwLDAsMSwuMTg2NS45ODF2LjAxNDJhMi41MjQ5LDIuNTI0OSwwLDAsMS0uMTkuOTg3NywyLjIyLDIuMjIsMCwwLDEtLjU0NzkuNzg0MiwyLjU0NTEsMi41NDUxLDAsMCwxLS44ODI4LjUxNjYsMy41MTQ4LDMuNTE0OCwwLDAsMS0xLjE4NDYuMTg2NkgzNS41Mzc2Wk0zNy40NiwyNy4xODQxYTEuNDU4NywxLjQ1ODcsMCwwLDAsLjk4ODMtLjMyMzMsMS4xNTM2LDEuMTUzNiwwLDAsMCwuMzc0LS45MjEzdi0uMDE0MmExLjE1NTcsMS4xNTU3LDAsMCwwLS4zNzQtLjkxNzUsMS40NDg1LDEuNDQ4NSwwLDAsMC0uOTg4My0uMzI3MWgtLjU1NzZ2Mi41MDM0WiIgdHJhbnNmb3JtPSJ0cmFuc2xhdGUoLTE0LjE3MzIgLTEwLjI3NTYpIi8+PC9nPjxnIGlkPSJFYmVuZV80IiBkYXRhLW5hbWU9IkViZW5lIDQiPjxyZWN0IGNsYXNzPSJjbHMtMSIgd2lkdGg9IjM0LjAxNTciIGhlaWdodD0iNDEuODExIi8+PC9nPjwvc3ZnPg==;align=left;" parent="opdz8pNMJDnXJPpdUdvm-11" vertex="1">
          <mxGeometry x="5.009999999999991" width="39.98" height="49.39" as="geometry" />
        </mxCell>
        <mxCell id="opdz8pNMJDnXJPpdUdvm-12" value="" style="group" parent="opdz8pNMJDnXJPpdUdvm-18" vertex="1" connectable="0">
          <mxGeometry x="70" y="110" width="50" height="163" as="geometry" />
        </mxCell>
        <mxCell id="opdz8pNMJDnXJPpdUdvm-13" value="" style="shape=image;verticalLabelPosition=bottom;verticalAlign=top;imageAspect=0;aspect=fixed;image=data:image/svg+xml,PHN2ZyB4bWxucz0iaHR0cDovL3d3dy53My5vcmcvMjAwMC9zdmciIHZpZXdCb3g9IjAgMCA0MS4xODQ2MDA4MzAwNzgxMjUgNDEuMTg0NjAwODMwMDc4MTI1IiB3aWR0aD0iNDEuMTg0NjAwODMwMDc4MTI1IiBoZWlnaHQ9IjQxLjE4NDYwMDgzMDA3ODEyNSI+PGRlZnM+PHN0eWxlPi5jbHMtMXtmaWxsOm5vbmU7fTwvc3R5bGU+PC9kZWZzPjxnIGlkPSJFYmVuZV8yIiBkYXRhLW5hbWU9IkViZW5lIDIiPjxwYXRoIGQ9Ik00OS42MDY0LDMxLjkzMTJhLjc1Ljc1LDAsMCwwLDAtMS41SDQzLjk0NzN2LTUuNzFoNS42NTkxYS43NS43NSwwLDAsMCwwLTEuNUg0My45NDczVjIxLjIzYTIuODE3OSwyLjgxNzksMCwwLDAtMi44MTQ1LTIuODE0OUgzOS4xNDA2VjEyLjc1NTlhLjc1Ljc1LDAsMCwwLTEuNSwwdjUuNjU4N0gzMS45MzEyVjEyLjc1NTlhLjc1Ljc1LDAsMCwwLTEuNSwwdjUuNjU4N2gtNS43MVYxMi43NTU5YS43NS43NSwwLDAsMC0xLjUsMHY1LjY1ODdIMjEuMjNBMi44MTc5LDIuODE3OSwwLDAsMCwxOC40MTQ2LDIxLjIzdjEuOTkxN0gxMi43NTU5YS43NS43NSwwLDAsMCwwLDEuNWg1LjY1ODd2NS43MUgxMi43NTU5YS43NS43NSwwLDAsMCwwLDEuNWg1LjY1ODd2NS43MDk0SDEyLjc1NTlhLjc1Ljc1LDAsMCwwLDAsMS41aDUuNjU4N3YxLjk5MjJBMi44MTc5LDIuODE3OSwwLDAsMCwyMS4yMyw0My45NDczaDEuOTkxN3Y1LjY1OTFhLjc1Ljc1LDAsMCwwLDEuNSwwVjQzLjk0NzNoNS43MXY1LjY1OTFhLjc1Ljc1LDAsMCwwLDEuNSwwVjQzLjk0NzNoNS43MDk0djUuNjU5MWEuNzUuNzUsMCwwLDAsMS41LDBWNDMuOTQ3M2gxLjk5MjJhMi44MTc4LDIuODE3OCwwLDAsMCwyLjgxNDUtMi44MTQ1VjM5LjE0MDZoNS42NTkxYS43NS43NSwwLDAsMCwwLTEuNUg0My45NDczVjMxLjkzMTJabS03LjE1OTEsOS4yMDE2YTEuMzE2MywxLjMxNjMsMCwwLDEtMS4zMTQ1LDEuMzE0NUgyMS4yM2ExLjMxNjMsMS4zMTYzLDAsMCwxLTEuMzE0OS0xLjMxNDVWMjEuMjNBMS4zMTYzLDEuMzE2MywwLDAsMSwyMS4yMywxOS45MTQ2SDQxLjEzMjhBMS4zMTYzLDEuMzE2MywwLDAsMSw0Mi40NDczLDIxLjIzWiIgdHJhbnNmb3JtPSJ0cmFuc2xhdGUoLTEwLjU4ODkgLTEwLjU4ODkpIi8+PHBhdGggZD0iTTM5Ljk5MzIsMjEuNjE5MUgyMi4zNjkxYS43NS43NSwwLDAsMC0uNzUuNzVWMzkuOTkzMmEuNzUuNzUsMCwwLDAsLjc1Ljc1SDM5Ljk5MzJhLjc1Ljc1LDAsMCwwLC43NS0uNzVWMjIuMzY5MUEuNzUuNzUsMCwwLDAsMzkuOTkzMiwyMS42MTkxWm0tLjc1LDE3LjYyNDFIMjMuMTE5MVYyMy4xMTkxSDM5LjI0MzJaIiB0cmFuc2Zvcm09InRyYW5zbGF0ZSgtMTAuNTg4OSAtMTAuNTg4OSkiLz48cGF0aCBkPSJNMjYuNzQsMzMuMzU0NWEyLjAzNjIsMi4wMzYyLDAsMCwxLS43NzU0LS4xNDg0LDEuODkyNiwxLjg5MjYsMCwwLDEtLjYzLS40MTUxLDIuMDAyMiwyLjAwMjIsMCwwLDEtLjU4LTEuNDI3N3YtLjAxMDhhMi4wMDQzLDIuMDA0MywwLDAsMSwuNTc3Ni0xLjQyMTgsMS45MjYxLDEuOTI2MSwwLDAsMSwuNjQwNi0uNDI2MywyLjEsMi4xLDAsMCwxLC44MTExLS4xNTM4LDIuMzE3NCwyLjMxNzQsMCwwLDEsLjUzOS4wNTc2LDEuODMzNiwxLjgzMzYsMCwwLDEsLjQ0MjkuMTY1LDEuNzY5MiwxLjc2OTIsMCwwLDEsLjM2MjguMjU1NCwyLjExMzcsMi4xMTM3LDAsMCwxLC4yODkxLjMyNDdsLS44MDMzLjYyMTZhMS4zODgsMS4zODgsMCwwLDAtLjM2MjctLjMzLjkwMjMuOTAyMywwLDAsMC0uNDc4Ni0uMTIxMS44NTI3Ljg1MjcsMCwwLDAtLjM3MTEuMDguODg3MS44ODcxLDAsMCwwLS4yODkuMjE2OCwxLjAxMzMsMS4wMTMzLDAsMCwwLS4xODk1LjMyNDcsMS4xMzY4LDEuMTM2OCwwLDAsMC0uMDY4OC4zOTZ2LjAxMTJhMS4xOCwxLjE4LDAsMCwwLC4wNjg4LjQwNDMsMS4wMDQzLDEuMDA0MywwLDAsMCwuMTg5NS4zMjcyLjg5MTQuODkxNCwwLDAsMCwuMjg5LjIxNzguODU5NC44NTk0LDAsMCwwLC4zNzExLjA3OTEsMS4wMzIyLDEuMDMyMiwwLDAsMCwuMjcyLS4wMzMyLjgyMi44MjIsMCwwLDAsLjIyNTYtLjA5NTcsMS4yMywxLjIzLDAsMCwwLC4xOTI5LS4xNDg1LDIuNDIyMSwyLjQyMjEsMCwwLDAsLjE3ODctLjE5bC44MDI3LjU3MThhMi44MzYxLDIuODM2MSwwLDAsMS0uMy4zNDY2LDEuNzIsMS43MiwwLDAsMS0uMzY4Mi4yNzU0LDEuOTYsMS45NiwwLDAsMS0uNDYyNC4xODE3QTIuMzA2NywyLjMwNjcsMCwwLDEsMjYuNzQsMzMuMzU0NVoiIHRyYW5zZm9ybT0idHJhbnNsYXRlKC0xMC41ODg5IC0xMC41ODg5KSIvPjxwYXRoIGQ9Ik0yOS4zNjkxLDI5LjQyNzJoMS42NWEyLjI0NzgsMi4yNDc4LDAsMCwxLC42Ni4wOTA5LDEuNDQyLDEuNDQyLDAsMCwxLC41MDYzLjI2NDEsMS4xNiwxLjE2LDAsMCwxLC4zMjEzLjQyNjMsMS4zOSwxLjM5LDAsMCwxLC4xMTIzLjU3MTh2LjAxMTJhMS4zNzc4LDEuMzc3OCwwLDAsMS0uMTIzLjU5OTEsMS4yMjkyLDEuMjI5MiwwLDAsMS0uMzQzOC40MzQ2LDEuNDgyMSwxLjQ4MjEsMCwwLDEtLjUyNTMuMjY0NiwyLjM4NzUsMi4zODc1LDAsMCwxLS42NjI2LjA4NzloLS41Mjc5djEuMUgyOS4zNjkxWm0xLjU3MzMsMS45MTQxYS42OC42OCwwLDAsMCwuNDQ4Mi0uMTM1Mi40NTQ3LjQ1NDcsMCwwLDAsLjE2MjEtLjM2Nzd2LS4wMTEzYS40NTcyLjQ1NzIsMCwwLDAtLjE2MjEtLjM3ODkuNzEuNzEsMCwwLDAtLjQ1MzYtLjEzaC0uNTAwNXYxLjAyMjlaIiB0cmFuc2Zvcm09InRyYW5zbGF0ZSgtMTAuNTg4OSAtMTAuNTg4OSkiLz48cGF0aCBkPSJNMzUuMjcxNSwzMy4zNDg2YTIuNDMzMiwyLjQzMzIsMCwwLDEtLjc0MzItLjEwNDUsMS4zNzc5LDEuMzc3OSwwLDAsMS0uOTE2LS44NzExLDIuMjYsMi4yNiwwLDAsMS0uMTIzLS43ODQxVjI5LjQyNzJoMS4wODg4djIuMTRhLjg3MS44NzEsMCwwLDAsLjE5MDUuNjE4Ni42NzcyLjY3NzIsMCwwLDAsLjUxMzYuMjAxMi42OS42OSwwLDAsMCwuNTEyNy0uMTkyNC44MjU2LjgyNTYsMCwwLDAsLjE5MTQtLjZ2LTIuMTY3aDEuMDg4OXYyLjEzNDNhMi4yNDEzLDIuMjQxMywwLDAsMS0uMTMuODA1NywxLjM5MDYsMS4zOTA2LDAsMCwxLS45Mjg3Ljg3NjlBMi40NjQxLDIuNDY0MSwwLDAsMSwzNS4yNzE1LDMzLjM0ODZaIiB0cmFuc2Zvcm09InRyYW5zbGF0ZSgtMTAuNTg4OSAtMTAuNTg4OSkiLz48L2c+PGcgaWQ9IkViZW5lXzQiIGRhdGEtbmFtZT0iRWJlbmUgNCI+PHJlY3QgY2xhc3M9ImNscy0xIiB3aWR0aD0iNDEuMTg0NiIgaGVpZ2h0PSI0MS4xODQ2Ii8+PC9nPjwvc3ZnPg==;align=left;" parent="opdz8pNMJDnXJPpdUdvm-12" vertex="1">
          <mxGeometry y="113" width="50" height="50" as="geometry" />
        </mxCell>
        <mxCell id="opdz8pNMJDnXJPpdUdvm-14" value="" style="shape=image;verticalLabelPosition=bottom;verticalAlign=top;imageAspect=0;aspect=fixed;image=data:image/svg+xml,PHN2ZyB4bWxucz0iaHR0cDovL3d3dy53My5vcmcvMjAwMC9zdmciIHZpZXdCb3g9IjAgMCA0MC4zMjg0OTg4NDAzMzIwMyA0MC4zMjg0OTg4NDAzMzIwMyIgd2lkdGg9IjQwLjMyODQ5ODg0MDMzMjAzIiBoZWlnaHQ9IjQwLjMyODQ5ODg0MDMzMjAzIj48ZGVmcz48c3R5bGU+LmNscy0xe2ZpbGw6bm9uZTt9PC9zdHlsZT48L2RlZnM+PGcgaWQ9IkViZW5lXzIiIGRhdGEtbmFtZT0iRWJlbmUgMiI+PHBhdGggZD0iTTQ5LjA1MjcsMzcuMjI3NSwyNC43NjQyLDEyLjk0MDlhMi40MTc0LDIuNDE3NCwwLDAsMC0zLjMzODksMEwxMi42OCwyMS42ODlhMS40NzI0LDEuNDcyNCwwLDAsMCwwLDIuMDgwNWw4LjE0ODEsOC4xNDYzLjAwMzcuMDA1Ni4wMDU2LjAwMzcsMi4zNzQzLDIuMzczN2ExLjQ3NjYsMS40NzY2LDAsMCwwLDIuMDgtLjAwMDlsMS4yMTM5LTEuMjEzOWExLjcsMS43LDAsMCwxLDIuNDEyNiwyLjM5NjVsLTEuMjIzNywxLjIyMzZhMS40NzQ3LDEuNDc0NywwLDAsMCwuMDAxNSwyLjA4TDM4LjIyNzUsNDkuMzEzNWExLjQ3MTMsMS40NzEzLDAsMCwwLDIuMDgsMGw4Ljc0NTEtOC43NDcxQTIuMzY0NiwyLjM2NDYsMCwwLDAsNDkuMDUyNywzNy4yMjc1Wm0tMS4wNjA1LDIuMjc4NC04LjcwNDEsOC43NDctMS44NS0xLjg0MjksMS43ODItMS43ODIxYS43NS43NSwwLDAsMC0xLjA2MDUtMS4wNkwzNi4zNzUsNDUuMzUxNmwtMS44MzE3LTEuODI0M0wzNi4zMzExLDQxLjc0QS43NS43NSwwLDAsMCwzNS4yNzA1LDQwLjY4bC0xLjc5LDEuNzg5MkwzMS42NSw0MC42NDU2bDEuNzkzNS0xLjc5MzFhLjc1Ljc1LDAsMSwwLTEuMDYwNi0xLjA2bC0xLjc5NTYsMS43OTUyLTEuODMwOS0xLjgyMzUsMS4yMy0xLjIzYTMuMiwzLjIsMCwwLDAtNC41MzM3LTQuNTE3NmwtMS4xOCwxLjIyMDctMS44NTE0LTEuODQzNywxLjc4MjUtMS43ODE4YS43NS43NSwwLDAsMC0xLjA2LTEuMDZsLTEuNzg0OCwxLjc4MzktMS44My0xLjgyMjgsMS43ODc5LTEuNzg4M2EuNzUuNzUsMCwxLDAtMS4wNjA1LTEuMDYwNWwtMS43OSwxLjc5LTEuODMxMS0xLjgyMzUsMS43OTQtMS43OTQxYS43NS43NSwwLDAsMC0xLjA2MDUtMS4wNjA1bC0xLjc5NjMsMS43OTYyLTEuODMtMS44MjI2LDguNzQ1Ni04Ljc0OGEuODgxNC44ODE0LDAsMCwxLDEuMjE3MywwTDQ3Ljk5MjIsMzguMjg4MUEuODYzNi44NjM2LDAsMCwxLDQ3Ljk5MjIsMzkuNTA1OVoiIHRyYW5zZm9ybT0idHJhbnNsYXRlKC0xMC44MzIgLTEwLjg1NCkiLz48cGF0aCBkPSJNMzkuNzk3OSwzMi41OTM4YS43NS43NSwwLDAsMC0xLjA2MDYsMEwzNS44NSwzNS40ODE0YS43NS43NSwwLDAsMCwwLDEuMDYwNmw0LjYxODIsNC42MmEuNzUuNzUsMCwwLDAsMS4wNjA1LDBsMi44ODc3LTIuODg2N2EuNzUuNzUsMCwwLDAsMC0xLjA2MDZabTEuMiw2Ljk3NzUtMy41NTc2LTMuNTYsMS44MjcyLTEuODI3MSwzLjU1NzYsMy41NloiIHRyYW5zZm9ybT0idHJhbnNsYXRlKC0xMC44MzIgLTEwLjg1NCkiLz48cGF0aCBkPSJNMjQuNzgwOCwxNy41NzY3YS43NS43NSwwLDAsMC0xLjA2MDYsMEwyMC44MzMsMjAuNDYzOWEuNzUuNzUsMCwwLDAsMCwxLjA2MDVsNC42Miw0LjYyMDZhLjc1Ljc1LDAsMCwwLDEuMDYwNiwwbDIuODg3Ny0yLjg4NzdhLjc1Ljc1LDAsMCwwLDAtMS4wNjA1Wm0xLjIwMjYsNi45Nzc1LTMuNTYtMy41NiwxLjgyNjctMS44MjY2LDMuNTYsMy41NloiIHRyYW5zZm9ybT0idHJhbnNsYXRlKC0xMC44MzIgLTEwLjg1NCkiLz48L2c+PGcgaWQ9IkViZW5lXzQiIGRhdGEtbmFtZT0iRWJlbmUgNCI+PHJlY3QgY2xhc3M9ImNscy0xIiB3aWR0aD0iNDAuMzI4NSIgaGVpZ2h0PSI0MC4zMjg1Ii8+PC9nPjwvc3ZnPg==;align=left;" parent="opdz8pNMJDnXJPpdUdvm-12" vertex="1">
          <mxGeometry x="4" y="60" width="42" height="42" as="geometry" />
        </mxCell>
        <mxCell id="opdz8pNMJDnXJPpdUdvm-15" value="" style="shape=image;verticalLabelPosition=bottom;verticalAlign=top;imageAspect=0;aspect=fixed;image=data:image/svg+xml,PHN2ZyB4bWxucz0iaHR0cDovL3d3dy53My5vcmcvMjAwMC9zdmciIHZpZXdCb3g9IjAgMCAzNC4wMTU3MDEyOTM5NDUzMSA0MS44MTEwMDA4MjM5NzQ2MSIgd2lkdGg9IjM0LjAxNTcwMTI5Mzk0NTMxIiBoZWlnaHQ9IjQxLjgxMTAwMDgyMzk3NDYxIj48ZGVmcz48c3R5bGU+LmNscy0xe2ZpbGw6bm9uZTt9PC9zdHlsZT48L2RlZnM+PGcgaWQ9IkViZW5lXzIiIGRhdGEtbmFtZT0iRWJlbmUgMiI+PHBhdGggZD0iTTQyLjY5NzYsMTMuMTkyOWEyLjU3NywyLjU3NywwLDAsMSwyLjU3NDEsMi41NzQxVjQ2LjYwMjRhMi41NzcsMi41NzcsMCwwLDEtMi41NzQxLDIuNTc0MUgxOS42NjQ2YTIuNTc2OSwyLjU3NjksMCwwLDEtMi41NzQtMi41NzQxVjE1Ljc2N2EyLjU3NjksMi41NzY5LDAsMCwxLDIuNTc0LTIuNTc0MWgyMy4wMzNtMC0xLjVIMTkuNjY0NmE0LjA3NCw0LjA3NCwwLDAsMC00LjA3NCw0LjA3NDFWNDYuNjAyNGE0LjA3NCw0LjA3NCwwLDAsMCw0LjA3NCw0LjA3NDFoMjMuMDMzYTQuMDc0MSw0LjA3NDEsMCwwLDAsNC4wNzQxLTQuMDc0MVYxNS43NjdhNC4wNzQxLDQuMDc0MSwwLDAsMC00LjA3NDEtNC4wNzQxWiIgdHJhbnNmb3JtPSJ0cmFuc2xhdGUoLTE0LjE3MzIgLTEwLjI3NTYpIi8+PHBhdGggZD0iTTQyLjcwOTEsNDcuNjdhMS4wNjI4LDEuMDYyOCwwLDEsMSwxLjA2MjgtMS4wNjI4QTEuMDQwOCwxLjA0MDgsMCwwLDEsNDIuNzA5MSw0Ny42N1oiIHRyYW5zZm9ybT0idHJhbnNsYXRlKC0xNC4xNzMyIC0xMC4yNzU2KSIvPjxwYXRoIGQ9Ik0xOS42NjgzLDQ3LjY1NDNhMS4wNjI4LDEuMDYyOCwwLDEsMSwxLjA2MjctMS4wNjI3QTEuMDQwNiwxLjA0MDYsMCwwLDEsMTkuNjY4Myw0Ny42NTQzWiIgdHJhbnNmb3JtPSJ0cmFuc2xhdGUoLTE0LjE3MzIgLTEwLjI3NTYpIi8+PHBhdGggZD0iTTE5LjY1NzgsMTYuODIyOUExLjA2MjgsMS4wNjI4LDAsMSwxLDIwLjcyMDUsMTUuNzYsMS4wNDA3LDEuMDQwNywwLDAsMSwxOS42NTc4LDE2LjgyMjlaIiB0cmFuc2Zvcm09InRyYW5zbGF0ZSgtMTQuMTczMiAtMTAuMjc1NikiLz48cGF0aCBkPSJNMTkuNjU3OCwxNi44MjI5QTEuMDYyOCwxLjA2MjgsMCwxLDEsMjAuNzIwNSwxNS43NiwxLjA0MDcsMS4wNDA3LDAsMCwxLDE5LjY1NzgsMTYuODIyOVoiIHRyYW5zZm9ybT0idHJhbnNsYXRlKC0xNC4xNzMyIC0xMC4yNzU2KSIvPjxwYXRoIGQ9Ik0xOS42NTc4LDE2LjgyMjlBMS4wNjI4LDEuMDYyOCwwLDEsMSwyMC43MjA1LDE1Ljc2LDEuMDQwNywxLjA0MDcsMCwwLDEsMTkuNjU3OCwxNi44MjI5WiIgdHJhbnNmb3JtPSJ0cmFuc2xhdGUoLTE0LjE3MzIgLTEwLjI3NTYpIi8+PHBhdGggZD0iTTQyLjcwOTEsMTYuODIyOUExLjA2MjgsMS4wNjI4LDAsMSwxLDQzLjc3MTksMTUuNzYsMS4wNDA4LDEuMDQwOCwwLDAsMSw0Mi43MDkxLDE2LjgyMjlaIiB0cmFuc2Zvcm09InRyYW5zbGF0ZSgtMTQuMTczMiAtMTAuMjc1NikiLz48cGF0aCBkPSJNNDIuNzA5MiwxNi44MjI5QTEuMDQwOCwxLjA0MDgsMCwwLDAsNDMuNzcxOSwxNS43NmExLjA2MjgsMS4wNjI4LDAsMSwwLTEuMDYyNywxLjA2MjhaIiB0cmFuc2Zvcm09InRyYW5zbGF0ZSgtMTQuMTczMiAtMTAuMjc1NikiLz48cGF0aCBkPSJNMzguOTA2LDE3LjI2YTQuMTQyNSw0LjE0MjUsMCwwLDAsMi4zMDMyLDIuMzEzMlYzOC41MzY5YS44OTcxLjg5NzEsMCwwLDEtLjg5NjEuODk2MUgzNi45NWExMi42ODQsMTIuNjg0LDAsMCwxLTEyLjY3LTEyLjY3di04LjZhLjkwNDYuOTA0NiwwLDAsMSwuOTAzNi0uOTAzNkgzOC45MDZtMS4yMTQ3LTEuNUgyNS4xODRBMi40MDM2LDIuNDAzNiwwLDAsMCwyMi43OCwxOC4xNjM3djguNmExNC4xNywxNC4xNywwLDAsMCwxNC4xNywxNC4xN2gzLjM2M2EyLjM5NjEsMi4zOTYxLDAsMCwwLDIuMzk2MS0yLjM5NjFWMTguMzY1NkEyLjYwODIsMi42MDgyLDAsMCwxLDQwLjEyMDcsMTUuNzZaIiB0cmFuc2Zvcm09InRyYW5zbGF0ZSgtMTQuMTczMiAtMTAuMjc1NikiLz48cGF0aCBkPSJNMjcuNjI4NiwyOC40NzhhMy44MTQ3LDMuODE0NywwLDAsMS0xLjI1NDktLjIwNTEsMy4wNCwzLjA0LDAsMCwxLTEuMDUxMi0uNjE1N2wuNzU5Mi0uOTA5MmEyLjUwMywyLjUwMywwLDAsMCwxLjU5NjIuNTkwOS44MTI3LjgxMjcsMCwwLDAsLjQxODUtLjA4NzkuMjc2Ni4yNzY2LDAsMCwwLC4xNDQtLjI0OXYtLjAxNDJhLjI2MzkuMjYzOSwwLDAsMC0uMDM1MS0uMTM2Ny4zNTIzLjM1MjMsMCwwLDAtLjEzLS4xMTU3LDEuMzE1MSwxLjMxNTEsMCwwLDAtLjI1MjktLjEwODlxLS4xNTgyLS4wNTI4LS40MTEyLS4xMDg5LS4zOTQtLjA5MDktLjczMTQtLjJhMi4yMywyLjIzLDAsMCwxLS41ODc0LS4yODA4LDEuMTk4MywxLjE5ODMsMCwwLDEtLjUzNzYtMS4wNjM1VjI0Ljk2YTEuNTEzMywxLjUxMzMsMCwwLDEsLjEzLS42MzE5LDEuNDA0NiwxLjQwNDYsMCwwLDEsLjM4LS40OTg1LDEuNzkzNCwxLjc5MzQsMCwwLDEsLjYwMS0uMzI2MiwyLjUzODMsMi41MzgzLDAsMCwxLC43OTQ1LS4xMTU3LDMuNTQ2MywzLjU0NjMsMCwwLDEsMS4xMjg5LjE2NiwyLjg0ODYsMi44NDg2LDAsMCwxLC44OTY1LjQ5MTdsLS42ODIyLjk2NjNhMi43NzI5LDIuNzcyOSwwLDAsMC0uNjkyOC0uMzYxOCwyLjA4NzUsMi4wODc1LDAsMCwwLS42ODU2LS4xMjMuNjE1My42MTUzLDAsMCwwLS4zNjkxLjA5MTMuMjcxLjI3MSwwLDAsMC0uMTIzMS4yMjQ2di4wMTM3YS4yNzU2LjI3NTYsMCwwLDAsLjAzOTEuMTQ3NC4zNS4zNSwwLDAsMCwuMTMzMy4xMTU3LDEuNDcsMS40NywwLDAsMCwuMjYuMTA1NXEuMTY0OS4wNTI4LjQxODUuMTA4OWE1Ljg5ODEsNS44OTgxLDAsMCwxLC43NjI3LjIxMzksMi4yOSwyLjI5LDAsMCwxLC41OC4yOTgzLDEuMTk2NCwxLjE5NjQsMCwwLDEsLjM2NTcuNDI0OCwxLjI5MzYsMS4yOTM2LDAsMCwxLC4xMjY1LjU5MzN2LjAxMzZhMS41MTIxLDEuNTEyMSwwLDAsMS0uMTQ0MS42NzM5LDEuNDQzNiwxLjQ0MzYsMCwwLDEtLjQwNDMuNTAxOSwxLjgxODQsMS44MTg0LDAsMCwxLS42MjYuMzE1OUEyLjg0MzksMi44NDM5LDAsMCwxLDI3LjYyODYsMjguNDc4WiIgdHJhbnNmb3JtPSJ0cmFuc2xhdGUoLTE0LjE3MzIgLTEwLjI3NTYpIi8+PHBhdGggZD0iTTMyLjU1LDI4LjQ3OGEzLjgxNTUsMy44MTU1LDAsMCwxLTEuMjU1NC0uMjA1MSwzLjA0LDMuMDQsMCwwLDEtMS4wNTEyLS42MTU3bC43NTkzLS45MDkyYTIuNTAyNiwyLjUwMjYsMCwwLDAsMS41OTYxLjU5MDkuODEuODEsMCwwLDAsLjQxOC0uMDg3OS4yNzUyLjI3NTIsMCwwLDAsLjE0NDUtLjI0OXYtLjAxNDJhLjI2MzkuMjYzOSwwLDAsMC0uMDM1MS0uMTM2Ny4zNS4zNSwwLDAsMC0uMTMtLjExNTcsMS4zMjkxLDEuMzI5MSwwLDAsMC0uMjUyOS0uMTA4OWMtLjEwNTUtLjAzNTItLjI0MzItLjA3MTMtLjQxMjEtLjEwODktLjI2MjctLjA2MDYtLjUwNTktLjEyNzUtLjczMTUtLjJhMi4yMzM2LDIuMjMzNiwwLDAsMS0uNTg2OS0uMjgwOCwxLjE5ODgsMS4xOTg4LDAsMCwxLS41Mzc2LTEuMDYzNVYyNC45NmExLjUxMzMsMS41MTMzLDAsMCwxLC4xMy0uNjMxOSwxLjQwNDYsMS40MDQ2LDAsMCwxLC4zOC0uNDk4NSwxLjc5MzQsMS43OTM0LDAsMCwxLC42MDEtLjMyNjIsMi41NDExLDIuNTQxMSwwLDAsMSwuNzk1LS4xMTU3LDMuNTM3OCwzLjUzNzgsMCwwLDEsMS4xMjc5LjE2NiwyLjgzNjYsMi44MzY2LDAsMCwxLC44OTY1LjQ5MTdsLS42ODE3Ljk2NjNhMi43NywyLjc3LDAsMCwwLS42OTIzLS4zNjE4LDIuMDk2MSwyLjA5NjEsMCwwLDAtLjY4NTYtLjEyMy42MTUzLjYxNTMsMCwwLDAtLjM2OTEuMDkxMy4yNzEuMjcxLDAsMCwwLS4xMjMxLjIyNDZ2LjAxMzdhLjI3MTMuMjcxMywwLDAsMCwuMDM5MS4xNDc0LjM1MTguMzUxOCwwLDAsMCwuMTMyOC4xMTU3LDEuNDkzNCwxLjQ5MzQsMCwwLDAsLjI2LjEwNTVxLjE2NTQuMDUyOC40MTg5LjEwODlhNS45MTYyLDUuOTE2MiwwLDAsMSwuNzYyNy4yMTM5LDIuMjksMi4yOSwwLDAsMSwuNTguMjk4MywxLjIwNjksMS4yMDY5LDAsMCwxLC4zNjYyLjQyNDgsMS4zLDEuMywwLDAsMSwuMTI2LjU5MzN2LjAxMzZhMS41MTg4LDEuNTE4OCwwLDAsMS0uMTQzNi42NzM5LDEuNDU1LDEuNDU1LDAsMCwxLS40MDQzLjUwMTksMS44MzIsMS44MzIsMCwwLDEtLjYyNi4zMTU5QTIuODQ2NCwyLjg0NjQsMCwwLDEsMzIuNTUsMjguNDc4WiIgdHJhbnNmb3JtPSJ0cmFuc2xhdGUoLTE0LjE3MzIgLTEwLjI3NTYpIi8+PHBhdGggZD0iTTM1LjUzNzYsMjMuNDcxN2gxLjlhMy41OCwzLjU4LDAsMCwxLDEuMTc3Ny4xNzkyLDIuNDkxMiwyLjQ5MTIsMCwwLDEsLjg3MTEuNTAyNCwyLjE0MzksMi4xNDM5LDAsMCwxLC41NDIuNzcsMi41Mjg2LDIuNTI4NiwwLDAsMSwuMTg2NS45ODF2LjAxNDJhMi41MjQ5LDIuNTI0OSwwLDAsMS0uMTkuOTg3NywyLjIyLDIuMjIsMCwwLDEtLjU0NzkuNzg0MiwyLjU0NTEsMi41NDUxLDAsMCwxLS44ODI4LjUxNjYsMy41MTQ4LDMuNTE0OCwwLDAsMS0xLjE4NDYuMTg2NkgzNS41Mzc2Wk0zNy40NiwyNy4xODQxYTEuNDU4NywxLjQ1ODcsMCwwLDAsLjk4ODMtLjMyMzMsMS4xNTM2LDEuMTUzNiwwLDAsMCwuMzc0LS45MjEzdi0uMDE0MmExLjE1NTcsMS4xNTU3LDAsMCwwLS4zNzQtLjkxNzUsMS40NDg1LDEuNDQ4NSwwLDAsMC0uOTg4My0uMzI3MWgtLjU1NzZ2Mi41MDM0WiIgdHJhbnNmb3JtPSJ0cmFuc2xhdGUoLTE0LjE3MzIgLTEwLjI3NTYpIi8+PC9nPjxnIGlkPSJFYmVuZV80IiBkYXRhLW5hbWU9IkViZW5lIDQiPjxyZWN0IGNsYXNzPSJjbHMtMSIgd2lkdGg9IjM0LjAxNTciIGhlaWdodD0iNDEuODExIi8+PC9nPjwvc3ZnPg==;align=left;" parent="opdz8pNMJDnXJPpdUdvm-12" vertex="1">
          <mxGeometry x="5.009999999999991" width="39.98" height="49.39" as="geometry" />
        </mxCell>
        <mxCell id="opdz8pNMJDnXJPpdUdvm-19" value="" style="endArrow=block;html=1;strokeWidth=3;endFill=0;fontSize=20;fontColor=#E42313;targetPerimeterSpacing=10;sourcePerimeterSpacing=10;strokeColor=#7C7C7B;dashed=1;" parent="opdz8pNMJDnXJPpdUdvm-18" edge="1">
          <mxGeometry width="50" height="50" relative="1" as="geometry">
            <mxPoint x="569.6700000000001" y="410" as="sourcePoint" />
            <mxPoint x="569.1700000000001" y="300" as="targetPoint" />
            <Array as="points" />
          </mxGeometry>
        </mxCell>
        <mxCell id="opdz8pNMJDnXJPpdUdvm-20" value="" style="endArrow=block;html=1;strokeWidth=3;endFill=0;fontSize=20;fontColor=#E42313;targetPerimeterSpacing=10;sourcePerimeterSpacing=10;strokeColor=#7C7C7B;dashed=1;" parent="opdz8pNMJDnXJPpdUdvm-18" edge="1">
          <mxGeometry width="50" height="50" relative="1" as="geometry">
            <mxPoint x="1079.67" y="410" as="sourcePoint" />
            <mxPoint x="1079.17" y="300" as="targetPoint" />
            <Array as="points" />
          </mxGeometry>
        </mxCell>
      </root>
    </mxGraphModel>
  </diagram>
</mxfile>
